<?xml version="1.0" encoding="UTF-8"?>
<svg id="Layer_1" data-name="Layer 1" xmlns="http://www.w3.org/2000/svg" viewBox="0 0 600 488.73">
  <defs>
    <style>
      .cls-1 {
        fill: #fe7f2d;
      }

      .cls-2, .cls-3, .cls-4, .cls-5 {
        fill: #4c593e;
      }

      .cls-3 {
        stroke: #fff;
        stroke-miterlimit: 10;
        stroke-width: 7px;
      }

      .cls-6 {
        fill: none;
        stroke: #4c593e;
        stroke-linecap: round;
        stroke-linejoin: round;
        stroke-width: 9px;
      }

      .cls-7 {
        opacity: .5;
      }

      .cls-4 {
        fill-rule: evenodd;
      }

      .cls-5 {
        opacity: .36;
      }
    </style>
  </defs>
  <g>
    <g>
      <path class="cls-4" d="m230.64,124.83c10.16-7.62,4.1-17.48,7.74-25.76,4.42-10.05,19.32-19.29,36.42-8.27,23.92,15.42,10.08,40.95,30.71,66.81,16.5,20.69,1.7,43.78-11.76,54.91-12.98,10.73-41.49,10.13-66.87,5.99-25.39-4.14-36.88-27.78-32.61-58.3,2.84-20.27,26.21-27.74,36.36-35.37Z"/>
      <path class="cls-2" d="m231.61,125.54c2.8-2.15,5.02-4.91,6.02-8.33.84-2.9.84-5.9.85-8.89s.03-6,1.17-8.76c1.04-2.53,2.71-4.83,4.69-6.7,4.6-4.37,10.91-6.51,17.22-5.78,7.54.87,14.85,5.36,19.69,11.12,8.24,9.82,8.34,23.44,11.22,35.35,1.76,7.27,4.51,14.27,8.66,20.52,2.33,3.52,5.18,6.63,7.09,10.43,1.7,3.38,2.76,7.12,3.04,10.89,1.04,13.61-7.32,26.65-17.18,35.32s-24.63,9.57-37.22,9.46c-8.11-.07-16.22-.83-24.25-1.96-6.27-.88-12.4-1.99-17.97-5.17-9.94-5.67-15.88-15.78-18.31-26.75-1.43-6.48-1.72-13.16-1.26-19.77s1.43-12.42,5.1-17.77c6.3-9.19,16.66-14.15,25.97-19.65,1.87-1.11,3.73-2.25,5.47-3.55,1.57-1.17-.75-2.31-1.95-1.42-3.98,2.97-8.48,5.2-12.75,7.71-5.04,2.96-10.01,6.16-14.24,10.23s-7.72,9.2-9.24,15.07c-.9,3.46-1.17,7.12-1.37,10.67s-.17,7.06.11,10.58c.95,11.94,5.14,23.96,14.29,32.09,4.35,3.87,9.67,6.61,15.29,8.12,3.58.96,7.28,1.45,10.95,1.95,4.16.57,8.33,1.02,12.51,1.34,8,.61,16.08.78,24.07-.03,6.77-.68,13.68-2.01,19.82-5.04,5.61-2.77,10.24-7.38,14.15-12.18,4.51-5.54,8.13-11.91,9.93-18.85s1.35-14.83-1.82-21.6c-1.88-4.02-4.74-7.25-7.21-10.89-2.33-3.43-4.28-7.11-5.8-10.98-2.61-6.63-3.92-13.63-5.17-20.62-1.12-6.22-2.28-12.52-5.05-18.26-6.24-12.89-22.34-22.31-36.55-17.47-5.8,1.98-10.89,6.02-13.85,11.43-3.14,5.74-1.45,12.02-2.58,18.16-.66,3.55-2.62,6.37-5.46,8.55-1.56,1.19.76,2.33,1.95,1.42Z"/>
    </g>
    <g>
      <path class="cls-4" d="m230.64,124.83c10.16-7.62,4.1-17.48,7.74-25.76,4.42-10.05,19.32-19.29,36.42-8.27,23.92,15.42,10.08,40.95,30.71,66.81,16.5,20.69,1.7,43.78-11.76,54.91-12.98,10.73-41.49,10.13-66.87,5.99-25.39-4.14-36.88-27.78-32.61-58.3,2.84-20.27,26.21-27.74,36.36-35.37Z"/>
      <path class="cls-2" d="m231.78,125c2.75-2.11,4.94-4.82,5.9-8.2.81-2.85.77-5.84.78-8.78s.09-6.06,1.24-8.87c1.06-2.58,2.79-4.93,4.81-6.84,4.69-4.43,10.99-6.46,17.39-5.52,7.53,1.11,14.74,5.71,19.54,11.55,8.14,9.92,8.19,23.63,11.12,35.55,1.78,7.27,4.59,14.2,8.79,20.43,2.4,3.57,5.25,6.73,7.11,10.65,1.59,3.36,2.57,7,2.83,10.71.98,13.7-7.44,26.84-17.37,35.57-4.52,3.97-9.9,6.16-15.73,7.47-7.08,1.59-14.43,1.92-21.67,1.82-8.14-.12-16.27-.9-24.33-2.06-6.24-.9-12.23-2.15-17.74-5.36-9.92-5.79-15.82-16.13-18.18-27.13-1.4-6.53-1.69-13.29-1.2-19.94s1.54-12.41,5.21-17.77c6.33-9.23,16.72-14.2,26.08-19.73,1.86-1.1,3.69-2.24,5.42-3.53.51-.38.27-.75-.24-.89-.64-.17-1.54.17-2.05.55-3.99,2.98-8.52,5.22-12.8,7.73-5.03,2.95-9.98,6.15-14.19,10.21s-7.67,9.14-9.12,14.95c-.87,3.48-1.13,7.16-1.31,10.73s-.16,6.97.13,10.44c.98,11.83,5.23,23.87,14.44,31.8,4.42,3.8,9.73,6.42,15.36,7.86,3.64.93,7.4,1.4,11.12,1.89,4.16.55,8.33.99,12.51,1.29,7.96.57,15.97.68,23.91-.15,6.77-.71,13.63-2.13,19.77-5.16,5.57-2.75,10.16-7.34,14.05-12.11,4.48-5.51,8.15-11.9,9.87-18.83s1.22-14.8-2.06-21.51c-1.93-3.94-4.83-7.15-7.25-10.77s-4.22-7.2-5.72-11.08c-2.57-6.63-3.84-13.62-5.09-20.59-1.11-6.21-2.28-12.54-5.14-18.22-6.53-12.95-22.47-21.52-36.67-16.63-5.69,1.96-10.75,5.97-13.63,11.28-3.12,5.74-1.32,12.06-2.57,18.18-.73,3.59-2.71,6.45-5.6,8.67-.5.39-.28.75.24.89.63.17,1.55-.17,2.05-.55Z"/>
    </g>
    <g>
      <path class="cls-4" d="m230.64,124.83c10.16-7.62,4.1-17.48,7.74-25.76,4.42-10.05,19.32-19.29,36.42-8.27,6.1,3.93,9.75,8.52,12.13,13.61-.2-.13-.4-.26-.6-.39-17.08-11.03-31.96-1.8-36.37,8.24-3.63,8.27,2.42,18.14-7.72,25.75-10.14,7.61-33.47,15.07-36.29,35.33-2.13,15.29-.3,28.85,5.24,39.1-14.26-9.67-20.18-28.95-16.92-52.24,2.84-20.27,26.21-27.74,36.36-35.37Z"/>
      <path class="cls-2" d="m231.8,125.06c2.37-1.82,4.31-4.07,5.42-6.87.94-2.37,1.17-4.92,1.22-7.44.1-5.08-.12-9.87,2.72-14.32,2.62-4.1,6.7-7.34,11.34-8.84,5.97-1.92,12.33-.78,17.84,2,6.57,3.31,11.98,8.54,15.14,15.2l2.6-1.09c-5.63-3.74-12.16-5.97-18.96-5.42-5.45.44-10.75,2.72-14.84,6.35-3.61,3.2-6.36,7.46-6.93,12.31s.52,10.43-1.62,15.25c-1.97,4.43-6.4,6.91-10.4,9.24s-7.9,4.45-11.71,6.91c-8.09,5.24-15.78,12.08-18.41,21.71-.95,3.49-1.23,7.2-1.43,10.81-.23,3.95-.19,7.92.19,11.86.67,6.99,2.45,13.9,5.78,20.11l2.6-1.09c-13.22-9.05-17.75-25.7-17.49-40.97.13-7.85.89-15.83,5.43-22.46,3.75-5.48,9.15-9.56,14.72-13.05s11.53-6.28,16.78-10.19c.52-.39.25-.88-.27-1.02-.69-.18-1.51.14-2.05.55-4.71,3.51-10.14,6.06-15.14,9.12-5.78,3.53-11.41,7.59-15.6,12.98-2.1,2.71-3.78,5.76-4.84,9.03-1.34,4.15-1.65,8.66-1.85,12.99-.39,8.44.42,17.06,3.34,25.03s7.77,14.67,14.66,19.39c.51.35,3.06-.24,2.6-1.09-6.17-11.53-7.02-25.2-5.37-37.96.64-4.98,2.37-9.55,5.37-13.6,2.76-3.72,6.31-6.81,10.09-9.47s7.56-4.81,11.45-7.03c3.38-1.93,6.9-3.8,9.92-6.28,2.11-1.73,3.8-3.92,4.78-6.47.91-2.37,1.11-4.93,1.15-7.45.08-4.91-.12-9.61,2.57-13.94,2.89-4.66,7.59-8.15,12.92-9.45,7.11-1.74,14.34.79,20.25,4.72.52.34,3.02-.2,2.6-1.09-5.65-11.88-19.33-20.95-32.76-18.69-5.48.92-10.67,3.57-14.48,7.64-1.68,1.79-3.09,3.8-4.1,6.04-1.1,2.43-1.4,5.06-1.46,7.71-.07,3.03.12,6.1-.46,9.1-.71,3.66-2.7,6.53-5.64,8.79-.51.39-.26.88.27,1.02.68.18,1.51-.14,2.05-.55Z"/>
    </g>
    <g>
      <path class="cls-4" d="m313.88,98.16c9.67-1.64,13.09,15.2,26.88,12.97,13.79-2.23,24.54,23.62,26.38,40.5,1.07,9.9-2.84,23.35-5.15,23.86-14.99,3.29-35.69-5.7-33.59-16.16,2.1-10.46-10.46-5.84-19.21-15.89-8.75-10.05-17.21-41.58,4.69-45.28Z"/>
      <path class="cls-2" d="m313.71,99.03c2.85-.44,5.24,1.22,7.27,3.04,2.45,2.21,4.6,4.71,7.24,6.71,2.87,2.18,6.24,3.5,9.88,3.43,1.72-.03,3.41-.5,5.13-.25,1.59.23,3.08.89,4.43,1.74,3.25,2.03,5.75,5.18,7.81,8.36,2.45,3.79,4.35,7.92,5.91,12.14,3.2,8.66,5.29,17.95,4.1,27.19-.53,4.09-1.32,8.62-3.3,12.29-.04.08-.75,1.28-.83,1.21,0,0,.99-.31-.13-.09-.66.12-1.32.22-1.98.29-2.27.25-4.55.24-6.82.03-4.59-.42-9.19-1.66-13.32-3.72-3.27-1.63-6.71-3.93-8.43-7.28-.68-1.32-1.05-2.82-.89-4.3.19-1.72.63-3.42-.02-5.1-1.15-2.95-4.65-3.9-7.36-4.82-4.27-1.45-8.31-3.23-11.43-6.62-1.93-2.1-3.42-4.59-4.65-7.14-2.94-6.06-4.85-12.99-4.82-19.76.03-6.06,1.86-12.72,7.56-15.8,1.45-.78,3.07-1.28,4.69-1.57.53-.09,1.55-.36,1.63-1.04s-.81-.8-1.28-.72c-3.75.66-7.38,2.07-10.16,4.75-2.33,2.25-3.83,5.2-4.61,8.32-1.72,6.85-.44,14.41,1.8,20.99s6,13.7,12.57,17.38c1.87,1.05,3.88,1.82,5.9,2.52,1.7.59,3.47,1.08,5.05,1.97,1.28.72,2.19,1.74,2.46,3.21.33,1.78-.39,3.51-.26,5.3.26,3.56,2.9,6.45,5.61,8.51,3.67,2.78,8.12,4.55,12.57,5.64,4.82,1.18,9.93,1.59,14.85.86,1.68-.25,3.28-.43,4.36-1.85.98-1.29,1.56-2.94,2.07-4.46,1.6-4.77,2.43-9.92,2.48-14.95.05-4.7-.83-9.39-1.99-13.93-2.27-8.87-5.88-18.24-12.06-25.16-2.4-2.68-5.4-5.07-8.96-5.92-1.84-.44-3.59-.33-5.45-.1s-3.77.04-5.56-.6c-3.38-1.22-6-3.83-8.5-6.31-2.24-2.23-4.57-4.71-7.64-5.77-1.46-.51-3.03-.61-4.56-.37-.54.08-1.55.37-1.63,1.04s.81.79,1.28.72Z"/>
    </g>
    <g>
      <path class="cls-4" d="m313.88,98.16c4.1-.69,7.07,1.93,10.19,5.01-.08.01-.15.01-.23.03-21.91,3.7-13.44,35.23-4.69,45.28.75.86,1.52,1.61,2.31,2.27-3.77-1.28-8.39-2.85-12.27-7.31-8.75-10.05-17.21-41.58,4.69-45.28Z"/>
      <path class="cls-2" d="m313.77,99.28c3.84-.55,6.66,2.27,9.19,4.75l1.22-2c-4.12.47-8.18,2.41-10.99,5.48-2.48,2.71-3.82,6.26-4.38,9.85-1.24,7.88.78,16.37,4.03,23.54,1.83,4.03,4.11,7.8,7.51,10.7l1.93-1.89c-2.81-.96-5.61-1.98-8.08-3.67-2.09-1.43-3.84-3.24-5.27-5.32-2.19-3.18-3.8-6.75-5.02-10.4-2.49-7.42-4.04-16.76-.24-24.02,2.14-4.09,6.05-6.3,10.49-7.08.62-.11,1.35-.77,1.16-1.45-.2-.76-1.12-.78-1.73-.67-4.46.78-8.7,2.93-11.4,6.66-2.49,3.45-3.51,7.71-3.66,11.91-.31,8.68,2.41,17.94,7.02,25.27,1.43,2.28,3.18,4.34,5.3,6.02,2.9,2.28,6.31,3.63,9.77,4.8,1.03.35,3.24-.78,1.93-1.89-5.43-4.63-8.34-12.13-9.96-18.9-1.57-6.6-2.26-14.83,1.69-20.78,2.14-3.23,5.79-5.47,9.66-5.9.98-.11,2.16-1.07,1.22-2-3.08-3.04-6.56-5.93-11.18-5.27-.65.09-1.53.45-1.58,1.22-.05.7.73,1.12,1.36,1.03Z"/>
    </g>
    <g>
      <path class="cls-4" d="m353.27,63.82c2.81-8.8-2.65-12.24-6.46-23.11-6.51-18.54.18-38.21,18.67-38.66,21.59-.52,23.36,25.38,27.86,36.2,4.49,10.82,26.83,16.14,30.99,33.99,4.16,17.85-9.74,42.2-34.81,43.71-17.14,1.03-35.08-5.61-40.96-18.58-8.1-17.87,1.27-22.69,4.73-33.55Z"/>
      <path class="cls-2" d="m354.72,63.65c.78-2.53,1.04-5.16.4-7.75s-1.96-4.93-3.17-7.27c-2.95-5.7-5.25-11.65-5.92-18.09-1.03-9.9,1.97-22.04,12.04-26.22,4.53-1.88,10.16-1.95,14.72-.12,4,1.6,7.11,4.63,9.42,8.21,4.56,7.05,6.07,15.45,8.61,23.31,1.15,3.54,2.81,6.39,5.55,8.94,3.36,3.13,7.27,5.63,10.96,8.34,4.01,2.93,7.94,6.12,10.97,10.1s4.84,8.78,5.21,13.84c.71,9.8-3.41,19.85-10.06,26.96-3.66,3.91-8.12,7-13.12,8.94-5.67,2.2-11.81,2.63-17.84,2.21-11.75-.82-25.23-5.41-31.51-16.12-2.92-4.97-4.88-11.46-3.98-17.26.68-4.38,3.03-8.09,5.07-11.93,1.03-1.96,1.96-3.97,2.65-6.08.35-1.07-2.57-.7-2.91.33-1.43,4.41-4.14,8.19-5.99,12.41-2.15,4.9-2.42,9.98-1.02,15.14,1.68,6.19,4.8,11.68,9.83,15.74s10.88,6.52,17,8.01c12.3,3,26.01,2.3,36.85-4.72,8.88-5.75,15.37-15.18,17.38-25.59.93-4.81.91-9.94-.51-14.65-1.54-5.1-4.77-9.44-8.62-13.04s-8-6.36-12.14-9.36c-3.39-2.46-7.14-5.15-9.24-8.87-1.83-3.22-2.57-7.2-3.58-10.73-1.23-4.31-2.54-8.63-4.47-12.69s-4.37-7.74-7.92-10.42c-3.95-2.98-8.82-4.17-13.72-4.01-5.55.18-11,2.06-15.09,5.89-3.82,3.58-6.12,8.51-7.09,13.61-1.11,5.83-.62,11.96.98,17.65.97,3.46,2.38,6.76,4.01,9.95,1.27,2.51,2.75,4.98,3.55,7.69s.59,5.34-.23,7.99c-.33,1.08,2.59.7,2.91-.33Z"/>
    </g>
    <g>
      <path class="cls-4" d="m353.27,63.82c2.81-8.8-2.65-12.24-6.46-23.11-6.51-18.54.18-38.21,18.67-38.66,8.5-.2,13.93,3.69,17.66,9.14-2.12-.68-4.51-1.03-7.21-.96-18.49.44-25.18,20.12-18.67,38.66,3.82,10.87,9.27,14.31,6.46,23.11-3.46,10.85-12.83,15.68-4.73,33.55.84,1.85,1.93,3.56,3.22,5.15-6.16-3.14-11.08-7.62-13.66-13.32-8.1-17.87,1.27-22.69,4.73-33.55Z"/>
      <path class="cls-2" d="m354.73,63.67c.86-2.78,1.05-5.64.22-8.45s-2.4-5.4-3.72-8.02c-3.1-6.16-5.26-12.83-5.39-19.77-.11-5.71,1.08-11.62,4.29-16.42,3.02-4.52,7.77-7.34,13.17-7.9,3.77-.39,7.69.1,11.08,1.85,3.06,1.58,5.47,4.03,7.42,6.84l2.2-1.47c-8.21-2.54-18.03-.51-23.96,5.89-5.42,5.86-7.12,14.17-6.57,21.93.33,4.71,1.51,9.31,3.31,13.67,1.69,4.09,4.31,7.86,5.64,12.09,2.31,7.34-2.91,13.68-5.84,19.96-1.67,3.58-2.5,7.32-2.16,11.28.5,5.71,2.89,11.68,6.46,16.15l2.47-1.36c-3.83-1.98-7.38-4.52-10.14-7.87s-4.57-7.6-5.64-11.84c-.84-3.32-1.05-6.74-.24-10.09.65-2.7,1.92-5.16,3.25-7.58,1.58-2.88,3.14-5.74,4.16-8.87.37-1.15-2.56-.79-2.91.3-1.83,5.63-5.8,10.32-7.31,16.08-.85,3.23-.78,6.63-.09,9.88.9,4.26,2.62,8.62,5.2,12.15,2.95,4.03,7.04,7.09,11.45,9.37.68.35,3.35-.26,2.47-1.36-3.18-3.98-5.24-9.08-6.04-14.11-.55-3.46-.2-6.95,1.05-10.22,2.34-6.09,7.3-11.51,7.38-18.33.05-3.78-1.68-7.05-3.38-10.32-2.17-4.19-4.09-8.48-5.18-13.09-1.81-7.62-1.66-16.26,2.22-23.25,1.87-3.36,4.63-6.21,8.13-7.86,4.47-2.1,9.84-2.29,14.53-.85.69.21,2.94-.41,2.2-1.47-3.96-5.71-9.83-9.17-16.83-9.45-6.26-.25-12.56,1.63-17.16,5.99-9.56,9.08-8.92,24.55-4.4,35.89,1.48,3.73,3.6,7.13,5.17,10.81,1.44,3.37,1.64,6.62.56,10.13-.36,1.17,2.58.8,2.91-.3Z"/>
    </g>
    <g>
      <path class="cls-4" d="m410.55,157.65c3.11-16.2,7.74-38.74,26.99-28.38,17.4,9.36,12.28,57.53-5.72,67.09-11.91,6.33-28.39-.27-32.59-6.29-7.83-11.21,8.6-18.24,11.33-32.42Z"/>
      <path class="cls-2" d="m412,157.48c1.25-6.5,2.5-13.12,5.01-19.28,1.85-4.54,5.06-10.33,10.58-10.69,3.17-.21,6.44,1.11,9.13,2.66,1.96,1.13,3.56,2.8,4.83,4.66,3.05,4.45,4.33,10.01,4.91,15.3.69,6.24.33,12.6-.78,18.78s-2.87,11.96-5.84,17.3c-2.6,4.69-6.15,8.93-11.35,10.74-7.47,2.61-16.48.69-23.13-3.29-2.64-1.58-4.98-3.66-6.13-6.59-1.04-2.65-.69-5.39.53-7.92,1.34-2.78,3.31-5.23,5.14-7.7,2.06-2.79,4.05-5.66,5.46-8.85.73-1.65,1.29-3.35,1.64-5.12.23-1.14-2.7-.68-2.9.35-1.5,7.5-6.88,12.76-10.8,19.01-1.56,2.49-2.82,5.27-2.6,8.28s2.03,5.88,4.32,7.82c6.1,5.16,15.05,7.41,22.91,6.75,6.97-.59,12.88-3.83,17.05-9.38,3.73-4.97,6.05-10.99,7.57-16.97,1.68-6.59,2.4-13.45,2.1-20.25-.26-5.91-1.29-12.06-4.15-17.32-2.83-5.22-7.68-8.66-13.58-9.71-15.05-2.68-19.53,15.66-21.82,26.71-.35,1.69-.68,3.38-1,5.07-.22,1.14,2.7.68,2.9-.35Z"/>
    </g>
    <g>
      <path class="cls-4" d="m410.55,157.65c3.11-16.2,7.74-38.74,26.99-28.38,3.51,1.89,6.1,5.35,7.86,9.76-.11-.08-.21-.17-.32-.25-17.82-12.66-25.2,9.13-30.3,24.82-3.64,11.2-15.72,16.55-16.61,24.7-5.05-10.22,9.8-17.23,12.38-30.65Z"/>
      <path class="cls-2" d="m412.01,157.5c1.41-7.34,2.76-15.03,6.15-21.76,1.36-2.69,3.14-5.42,5.79-6.99s5.86-1.33,8.74-.36c2.35.79,4.7,1.95,6.5,3.66,2.15,2.04,3.64,4.64,4.75,7.36l2.58-1.15c-4.12-3.15-9.59-5.25-14.75-3.65-4.63,1.44-7.93,5.23-10.35,9.26-2.84,4.71-4.77,9.95-6.54,15.14-.94,2.75-1.68,5.6-3.05,8.17-1.46,2.72-3.41,5.11-5.49,7.37-3.66,3.98-8.92,8.17-9.63,13.89l2.91-.54c-2.48-5.18.46-9.81,3.5-13.99,3.71-5.09,7.62-10.09,8.89-16.42.25-1.26-2.69-.84-2.92.29-1.29,6.44-5.49,11.43-9.21,16.63-3.03,4.23-5.63,9.11-3.16,14.26.48,1,2.77.56,2.91-.54.58-4.69,4.58-8.18,7.65-11.42,3.95-4.16,7.38-8.45,9.18-13.98,1.62-4.96,3.28-9.93,5.53-14.64,1.9-3.98,4.31-8.29,8.11-10.75,4.64-3.01,10.18-.61,14.15,2.43.61.47,3-.12,2.58-1.15-1.05-2.59-2.42-5.1-4.34-7.15-1.78-1.89-3.96-3.19-6.34-4.19-3.56-1.5-7.54-2.18-11.29-.93-7.36,2.45-10.59,10.62-12.6,17.43-1.36,4.59-2.28,9.3-3.19,14-.24,1.27,2.7.84,2.92-.29Z"/>
    </g>
    <g>
      <path class="cls-4" d="m476.52,144.81c2.55-14.48,9.42-33.58,22.94-31.15,18.79,3.38,16.7,26.96,4.51,42.76-12.2,15.8-5.49,21.75-18.02,34.12-11.5,11.34-25.08,4.43-27.72-7.52-4.15-18.84,15.74-23.74,18.29-38.22Z"/>
      <path class="cls-2" d="m477.99,144.71c1.3-7.31,3.31-14.75,7.04-21.23,1.59-2.76,3.62-5.44,6.31-7.22,2.46-1.62,5.24-2.01,8.1-1.43,5.99,1.2,10.39,5.4,11.84,11.33,1.57,6.42.06,13.38-2.44,19.36-1.43,3.42-3.27,6.68-5.48,9.66-2.62,3.55-5.13,7.1-6.9,11.17-2.45,5.63-3.13,11.91-6.36,17.2-3.91,6.4-11.11,13.24-19.24,11.33-7.29-1.7-11.45-9.1-11.71-16.17-.23-6.32,2.89-11.41,6.93-15.99,3.83-4.33,8.31-8.37,10.64-13.78.59-1.36,1.01-2.79,1.27-4.25s-2.69-1.14-2.94.2c-1.16,6.28-5.85,10.85-10,15.36s-8.37,9.95-8.81,16.57c-.51,7.61,3,15.52,10.04,18.97,3.43,1.68,7.37,1.99,11.06,1.06,4.63-1.17,8.39-4.19,11.55-7.66,2.53-2.77,4.64-5.91,6.02-9.4,1.15-2.9,1.81-5.96,2.76-8.93,1.28-3.99,3.11-7.75,5.48-11.21s5.07-6.85,7.03-10.71c5.6-11.05,8.37-29.38-5.9-35.17-3.25-1.32-6.9-1.88-10.33-1s-6.06,2.91-8.26,5.41c-5.09,5.78-7.67,13.64-9.45,20.99-.46,1.89-.85,3.8-1.19,5.72-.26,1.48,2.7,1.14,2.94-.2Z"/>
    </g>
    <g>
      <path class="cls-4" d="m476.52,144.81c2.55-14.48,9.42-33.58,22.94-31.15,18.79,3.38,16.7,26.96,4.51,42.76-12.2,15.8-5.49,21.75-18.02,34.12-11.5,11.34-25.08,4.43-27.72-7.52-4.15-18.84,15.74-23.74,18.29-38.22Z"/>
      <path class="cls-2" d="m477.97,144.64c1.3-7.32,3.29-14.81,7.02-21.29,1.6-2.77,3.59-5.52,6.28-7.31,2.47-1.65,5.19-2.03,8.08-1.41,6.04,1.3,10.45,5.53,11.92,11.54,1.58,6.44.09,13.4-2.38,19.42-1.42,3.45-3.28,6.72-5.48,9.74-2.59,3.56-5.11,7.04-6.9,11.09-2.49,5.64-3.16,11.96-6.39,17.28-3.9,6.42-11.01,13.41-19.18,11.4-7.37-1.81-11.44-9.21-11.81-16.35-.33-6.33,2.84-11.61,6.89-16.19,3.83-4.32,8.28-8.34,10.65-13.71.59-1.35,1.03-2.75,1.3-4.19.21-1.15-2.71-.68-2.9.34-1.17,6.34-5.78,10.92-9.97,15.48s-8.4,9.85-8.85,16.46c-.51,7.49,2.93,15.44,9.97,18.74,3.45,1.62,7.35,1.87,11.03.94,4.62-1.17,8.41-4.12,11.57-7.58,2.53-2.77,4.62-5.84,6.04-9.32,1.17-2.89,1.84-5.94,2.78-8.91,1.25-3.98,3.07-7.69,5.39-11.16s5.13-6.9,7.11-10.8c3.22-6.35,5.34-13.69,4.48-20.86-.74-6.25-4.31-11.68-10.29-13.99-3.29-1.27-6.87-1.8-10.32-.91-3.26.84-6.08,2.84-8.28,5.33-5.08,5.75-7.7,13.54-9.48,20.87-.46,1.89-.85,3.8-1.19,5.72-.21,1.16,2.72.68,2.9-.34Z"/>
    </g>
    <g>
      <path class="cls-4" d="m476.52,144.81c2.55-14.48,9.42-33.58,22.94-31.15,6.03,1.08,9.91,4.25,11.99,8.58-12.91-4.31-22.6,13.41-27.34,27.26-4.76,13.91-25.18,15.67-23.99,34.92.12,1.91.52,3.73,1.16,5.42-1.43-1.96-2.49-4.28-3.06-6.82-4.15-18.84,15.74-23.74,18.29-38.22Z"/>
      <path class="cls-2" d="m477.98,144.68c1.3-7.32,3.3-14.77,7.03-21.26,1.6-2.78,3.6-5.46,6.29-7.26s5.62-2.04,8.67-1.29c4.35,1.07,8.03,3.71,10.03,7.76l2.3-1.3c-14.41-4.64-23.76,13.12-28.03,23.88-1.12,2.83-1.91,5.79-3.62,8.35-1.42,2.13-3.3,3.96-5.24,5.62-4.07,3.48-8.67,6.44-12.07,10.63-4.62,5.7-6.06,13.49-3.51,20.43l2.78-1c-4.47-6.27-4.56-14.76-.62-21.26,3.17-5.24,8.07-9.14,11.7-14.03,2.06-2.78,3.65-5.83,4.28-9.26.25-1.33-2.7-.92-2.92.27-1.15,6.27-5.75,10.82-9.9,15.32s-8.36,9.79-8.9,16.33c-.4,4.87.85,9.88,3.69,13.86.59.83,3.2.13,2.78-1-2.16-5.89-1.42-12.72,2.2-17.87,2.89-4.11,7.15-7,11-10.12s7.65-6.69,9.43-11.48c2.42-6.52,5.02-12.98,9.1-18.67,3.73-5.2,9.29-10.37,16.15-8.17.58.19,2.8-.3,2.3-1.3-3.61-7.29-12.9-11.4-20.64-8.36-7.17,2.82-11.12,10.76-13.57,17.57-1.63,4.51-2.8,9.17-3.64,13.89-.24,1.33,2.71.92,2.92-.27Z"/>
    </g>
    <g>
      <path class="cls-4" d="m476.66,217.36c24.39-28.88,53.44-29.95,77.18-9.51,16.38,14.1,18.18,36.78,7.55,56.31-21.34,39.19-63.16,36.27-80.33,16.76-23.21-26.39-17.3-48.29-4.4-63.56Z"/>
      <path class="cls-2" d="m477.83,217.65c7.78-9.17,17.45-17.4,29.13-20.98,9.73-2.98,20.07-2.28,29.44,1.63,10.08,4.21,19.82,11.53,25.18,21.2s6.2,21.56,3.36,32.32c-2.85,10.8-9.18,20.99-17.29,28.64-6.61,6.24-14.75,10.71-23.67,12.58-14.7,3.08-31.46-1.28-41.58-12.7-7.89-8.91-14.5-19.8-15.51-31.89-.76-9.1,2.05-17.99,7.02-25.55,1.2-1.82,2.51-3.57,3.91-5.24,1.12-1.33-1.67-1.38-2.35-.57-5.97,7.1-10.48,15.56-11.43,24.91-1.17,11.46,3.14,22.47,9.58,31.77,3.07,4.43,6.51,8.79,10.74,12.16,2.99,2.39,6.3,4.35,9.82,5.86,7.68,3.3,16.18,4.52,24.49,3.72,21-2.03,38.32-17.2,46.46-36.22,4.61-10.76,5.95-23.09,2.1-34.3s-12.66-19.63-22.84-25.35c-9.3-5.23-20.05-7.69-30.67-6.15-11.79,1.71-22.36,7.89-30.98,15.93-2.58,2.4-4.98,4.98-7.26,7.67-1.12,1.32,1.66,1.37,2.35.57Z"/>
    </g>
    <g>
      <path class="cls-4" d="m476.66,217.36c24.39-28.88,53.44-29.95,77.18-9.51,3.43,2.95,6.21,6.28,8.38,9.87-.28-.25-.55-.51-.84-.76-23.74-20.44-52.79-19.37-77.18,9.51-11.71,13.87-17.66,33.2-1.28,56.39-.65-.63-1.27-1.28-1.85-1.95-23.21-26.39-17.3-48.29-4.4-63.56Z"/>
      <path class="cls-2" d="m478.08,217.09c8.5-10.02,19.55-19.18,32.75-21.85,11.41-2.31,23.07.68,32.89,6.67,6.75,4.12,12.89,9.4,17.05,16.2l2.82-.86c-7.16-6.54-16-11.6-25.51-13.71-9.05-2-18.54-1.07-27.18,2.19-10.15,3.84-18.81,10.62-26.03,18.62-6.21,6.88-11.2,14.86-12.86,24.1-2.25,12.5,2.35,24.66,9.46,34.8l2.82-.86c-4.5-4.44-8.36-9.79-11.42-15.32-2.45-4.43-4.35-9.2-5.34-14.18-1.66-8.38-.46-16.95,3.23-24.64,1.93-4.03,4.46-7.75,7.33-11.17.3-.36-1.07-.21-1.14-.19-.56.1-1.33.28-1.71.74-5.22,6.21-9.25,13.47-10.74,21.51-1.74,9.39.36,18.9,4.72,27.3,3.18,6.13,7.41,12.03,12.33,16.89.44.44,3.01-.6,2.82-.86-6.14-8.75-10.52-18.99-10.02-29.85.4-8.77,4.03-17,9.29-23.94,6.3-8.32,14.5-15.81,23.87-20.51,7.95-3.99,16.82-5.5,25.62-4.08,10.36,1.67,20.04,7.06,27.73,14.09.42.38,3.03-.52,2.82-.86-3.92-6.42-9.57-11.45-15.85-15.51-5.29-3.42-11.12-6.03-17.28-7.39-12.38-2.74-25.32.08-36.12,6.49-7.35,4.36-13.67,10.22-19.18,16.72-.3.36,1.07.21,1.14.19.56-.1,1.32-.28,1.71-.74Z"/>
    </g>
    <g>
      <path class="cls-4" d="m304.27,244.82c17.42-1.53,32.04,10.87,44.29,27.18,9.81,13.06,10.75,31.22,3.5,50.54-10.78,28.75-57.12,32.14-71.1,11.39-11.94-17.72-3.24-30.27-3.56-49.01-.32-18.74,7.69-38.41,26.87-40.1Z"/>
      <path class="cls-2" d="m303.66,245.48c10.67-.88,20.44,3.89,28.44,10.62,4.42,3.71,8.36,7.96,11.99,12.43s6.67,8.87,8.6,14.2c4.06,11.18,3.1,23.51-.27,34.73-1.36,4.53-3.02,8.97-5.79,12.84-2.23,3.11-4.98,5.82-8.07,8.05-11.97,8.65-29.06,10.68-42.8,5.32-3.16-1.23-6.15-2.91-8.76-5.09-3.27-2.73-5.65-6.24-7.51-10.05-2.34-4.79-3.44-9.99-3.4-15.32s1.01-10.2,1.73-15.26c.37-2.57.68-5.14.86-7.73.2-2.81.1-5.61.17-8.41.13-4.79.81-9.59,2.15-14.2,2.47-8.49,7.58-17.07,16.12-20.54,2.09-.85,4.29-1.36,6.54-1.58.54-.05,1.62-.19,1.93-.73s-.25-.65-.72-.6c-4.95.47-9.74,1.97-13.88,4.77-3.83,2.59-6.88,6.18-9.15,10.19-2.42,4.28-3.97,9.02-4.88,13.83-.45,2.39-.74,4.81-.9,7.24-.18,2.8-.05,5.61-.15,8.41-.39,10.75-4.18,21.57-2.13,32.34,1.68,8.87,6.94,17.17,14.84,21.68,13.78,7.86,32.36,6.57,46.2-.42,7.17-3.62,13.4-9.15,17.1-16.34,2.71-5.27,4.31-11.31,5.35-17.11s1.35-12.11.47-18.11c-.83-5.67-2.71-11.19-5.73-16.07s-7.28-9.83-11.46-14.13c-7.57-7.79-16.92-14.54-27.92-16.08-2.57-.36-5.18-.41-7.76-.19-.54.04-1.63.19-1.93.73s.25.64.72.6Z"/>
    </g>
    <g>
      <path class="cls-4" d="m304.27,244.82c17.42-1.53,32.04,10.87,44.29,27.18.81,1.08,1.55,2.19,2.24,3.34-11.03-12.69-23.82-21.48-38.64-20.18-19.18,1.69-22.47,21.87-26.87,40.1-4.03,16.71-2.95,40.72-4.33,38.67-11.94-17.72-3.24-30.27-3.56-49.01-.32-18.74,7.69-38.41,26.87-40.1Z"/>
      <path class="cls-2" d="m303.66,245.47c14.92-1.23,27.52,8.41,36.95,18.96,3.16,3.53,6.28,7.25,8.75,11.3l2.81-.9c-6.1-6.99-13.17-13.45-21.73-17.26-7.57-3.37-16.51-4.34-24.44-1.65-14.65,4.98-18.07,22.27-21.18,35.49-.96,4.1-1.92,8.17-2.52,12.34s-1.01,8.56-1.31,12.86c-.39,5.72-.34,11.51-1.07,17.19-.01.09-.08.2-.09.29,0,.07,2.72-.05,2.53-.61-.12-.35-.54-.81-.74-1.13-.4-.64-.79-1.28-1.15-1.94-1.16-2.07-2.13-4.25-2.85-6.51-1.28-4.02-1.69-8.22-1.49-12.42.4-8.77,2.74-17.31,2.72-26.12-.02-8.09.93-16.14,4.28-23.59,2.99-6.64,7.99-12.63,15.01-15.13,1.77-.63,3.63-1,5.51-1.18.54-.05,1.63-.19,1.93-.72s-.25-.62-.71-.58c-7.77.73-14.91,4.18-19.87,10.28s-7.49,13.82-8.53,21.5c-.57,4.22-.42,8.4-.57,12.64-.17,4.63-.87,9.2-1.56,13.77-1.29,8.56-2.02,17.07,1.47,25.24.46,1.09.98,2.16,1.55,3.2.6,1.11,1.27,2.67,2.18,3.57.68.67,2.23.26,2.85-.35.4-.39.45-.91.52-1.45.13-1.03.19-2.06.25-3.1.44-7.75.67-15.51,1.6-23.23,1.01-8.32,3.02-16.55,5.21-24.63,1.91-7.04,4.33-14.55,9.45-19.96,5.57-5.89,13.73-6.94,21.39-5.29,9.09,1.95,16.91,7.55,23.43,13.96,1.8,1.77,3.51,3.61,5.17,5.51.46.53,3.12-.38,2.81-.9-2.21-3.62-4.94-6.95-7.71-10.16s-5.49-6.03-8.55-8.72c-5.5-4.83-11.87-8.92-19-10.83-3.95-1.06-8.04-1.41-12.11-1.07-.54.04-1.63.19-1.93.72s.25.61.71.58Z"/>
    </g>
    <g>
      <path class="cls-4" d="m313.01,300.09c4.96,22.7-12.28,30.12-30.19,36.24-.67-.76-1.29-1.56-1.86-2.4-11.94-17.72-3.24-30.27-3.56-49.01-.08-4.51,29.39-13.28,35.61,15.17Z"/>
      <path class="cls-2" d="m311.56,300.48c1.44,6.72,1.21,13.94-2.92,19.71-3.68,5.15-9.38,8.39-15.06,10.9-3.6,1.6-7.31,2.93-11.04,4.2l1.6.39c-3.37-3.9-5.83-8.76-7.08-13.75-1.03-4.12-1.12-8.36-.75-12.57s1.19-8.63,1.76-12.95c.31-2.36.57-4.73.7-7.1.06-1.15.09-2.3.09-3.45,0-.38-.03-.77,0-1.15.02-.28-.01.02,0-.05.05-.29.35-.53.54-.68q.69-.54,1.52-.95c1.52-.75,3.17-1.23,5.07-1.56,4.4-.77,9.39-.25,13.59,1.76,6.78,3.25,10.4,10.2,11.98,17.26.31,1.39,3.21.63,2.9-.78-1.54-6.92-4.97-13.64-11.2-17.41-4.66-2.82-10.27-3.81-15.65-3.22-3.56.39-8.32,1.33-10.83,4.16-.4.46-.75,1-.83,1.61-.12.86,0,1.78-.02,2.65-.03,1.33-.1,2.66-.21,3.99-.39,4.79-1.25,9.51-1.89,14.27-.67,5.04-.99,10.16-.03,15.18,1.1,5.8,3.86,11.58,7.72,16.05.37.43,1.06.57,1.6.39,12.43-4.25,28.22-9.87,31.62-24.26,1.04-4.4.68-9.02-.25-13.41-.3-1.39-3.2-.64-2.9.78Z"/>
    </g>
    <g>
      <path class="cls-4" d="m267.61,201.06c8.86,4.44,12.29,10.89,12.76,17.78-14.62,3.83-34.88,2.7-53.48-.34-4.94-.81-9.35-2.35-13.22-4.54,18.59-9.84,34.94-22.42,53.94-12.9Z"/>
      <path class="cls-2" d="m266.49,201.88c3.66,1.86,7.01,4.33,9.32,7.78,1.91,2.85,2.86,6.17,3.11,9.57l1.19-1.35c-7.88,2.04-16.15,2.49-24.26,2.35-9.08-.17-18.14-1.12-27.1-2.53-4.91-.77-9.61-2.13-13.96-4.55l-.49,1.64c6.78-3.6,13.34-7.63,20.27-10.94,6.15-2.93,12.86-5.38,19.78-5.12,4.24.16,8.34,1.29,12.14,3.16.66.33,1.48.26,2.07-.19.41-.31.84-1.12.17-1.45-6.93-3.41-14.38-4.36-21.95-2.83-7.54,1.53-14.53,5.13-21.23,8.8-4.18,2.3-8.31,4.68-12.52,6.92-.5.27-1.34,1.16-.49,1.64,8.13,4.54,17.49,5.51,26.6,6.48s18.5,1.42,27.73.72c4.63-.35,9.25-1.02,13.75-2.18.65-.17,1.25-.63,1.19-1.35-.27-3.59-1.35-7.05-3.35-10.05-2.39-3.58-5.93-6.22-9.73-8.16-.65-.33-1.48-.26-2.07.19-.42.31-.83,1.11-.17,1.45Z"/>
    </g>
    <g>
      <path class="cls-2" d="m383.9,479.21c11.47-22.24,18.88-49.25,22.01-80.28,2.91-28.83,1.92-60.88-2.87-92.69-4.68-31.12-12.99-62.08-24.02-89.53-11.3-28.1-25.5-52.59-41.09-70.82-1.19-1.39-1.02-3.47.37-4.66,1.39-1.18,3.47-1.02,4.66.36,16.04,18.77,30.63,43.89,42.2,72.65,11.22,27.91,19.67,59.38,24.42,91.01,4.87,32.34,5.87,64.96,2.91,94.33-3.21,31.86-10.85,59.67-22.71,82.65-.33.63-.83,1.12-1.42,1.42-.92.47-2.05.51-3.04,0-1.62-.84-2.26-2.83-1.42-4.45Z"/>
      <path class="cls-2" d="m385.29,479.39c9.84-19.15,15.92-40.05,19.49-61.22,4.08-24.13,4.98-48.75,3.68-73.17-1.35-25.36-5.08-50.58-11.05-75.26-5.71-23.61-13.41-46.81-23.62-68.86-4.79-10.35-10.12-20.45-16.12-30.15-5.51-8.89-11.68-17.18-18.26-25.3-.82-1.01-1.31-2.8.08-3.63,1.47-.88,2.63,1.01,3.46,2,1.56,1.87,3.09,3.78,4.58,5.71,3.22,4.18,6.28,8.48,9.18,12.88,6.21,9.39,11.75,19.22,16.74,29.3,10.78,21.78,18.98,44.82,25.21,68.29,6.51,24.57,10.84,49.73,12.81,75.07,1.92,24.66,1.67,49.58-1.58,74.12-2.92,22.07-8.27,43.97-17.41,64.33-.97,2.17-1.99,4.32-3.05,6.44-.62,1.25-1.27,3.39-3,2.78-1.39-.48-1.68-2.14-1.15-3.35.67-1.54-2.25-1.59-2.78-.37-2.08,4.81,4.09,7.91,7.62,4.74,1.71-1.54,2.62-4.46,3.59-6.51,1.14-2.41,2.23-4.84,3.26-7.3,4.32-10.27,7.72-20.91,10.39-31.72,5.95-24.06,8.28-48.95,8.24-73.71-.05-26.39-2.79-52.78-7.9-78.66s-12.01-49.61-21.6-73.2c-8.86-21.82-19.89-42.99-34-61.89-1.58-2.12-3.2-4.21-4.87-6.26-1.39-1.71-2.85-4.22-5.04-4.94-2.07-.68-4.52.16-5.77,1.93-1.44,2.04-.62,4.1.83,5.81,6.98,8.27,13.2,17.18,18.82,26.43,12.87,21.18,22.68,44.15,30.26,67.71,7.95,24.7,13.53,50.19,16.71,75.93s4.04,52.45,1.67,78.59c-2.14,23.59-6.86,47.16-15.82,69.14-1.93,4.73-4.06,9.37-6.39,13.91-.76,1.48,2.17,1.55,2.78.37Z"/>
    </g>
    <g>
      <path class="cls-2" d="m228.71,158.94c1.45-1.11,3.52-.84,4.63.61,12.57,16.41,35.97,33.91,62.6,46.81,30.8,14.92,63.01,22.24,90.71,20.61,1.82-.11,3.39,1.28,3.49,3.11.08,1.35-.66,2.55-1.78,3.13-.4.21-.85.33-1.32.36-28.81,1.7-62.18-5.85-93.98-21.26-27.51-13.33-51.8-31.55-64.97-48.73-1.11-1.45-.84-3.52.61-4.63Z"/>
      <path class="cls-2" d="m229.66,159.55c1.06-.73,2,.19,2.65,1.01.72.91,1.44,1.82,2.19,2.7,1.61,1.92,3.3,3.77,5.05,5.57,3.75,3.87,7.76,7.49,11.91,10.92,9.33,7.69,19.44,14.44,29.96,20.39,22.23,12.58,46.61,21.85,71.87,25.95,5.86.95,11.78,1.61,17.71,1.92,2.81.15,5.62.21,8.44.19,1.32,0,2.64-.03,3.96-.08,1.2-.04,2.93-.5,4.02.11s1.54,1.96,1.14,3.09c-.52,1.49-2.03,1.28-3.33,1.33-2.8.12-5.61.16-8.42.11-5.81-.11-11.61-.55-17.38-1.28-25.54-3.24-50.37-11.93-73.06-23.95-10.96-5.81-21.52-12.44-31.38-19.97-8.52-6.51-16.63-13.72-23.48-22-1.21-1.47-4.04-4.15-1.85-6.01,1.5-1.27-.84-2.13-1.9-1.23-2.13,1.81-2.28,4.23-.59,6.4,1.54,1.98,3.17,3.9,4.86,5.76,3.69,4.07,7.68,7.87,11.82,11.47,9.6,8.35,20.12,15.64,31.09,22.08,23.34,13.7,49.09,23.77,75.82,28.33,6.25,1.07,12.56,1.82,18.89,2.19,2.97.17,5.94.26,8.92.26s5.85.11,8.68-.27c2.57-.35,4.86-2.62,4.27-5.35-.62-2.88-3.44-3.29-5.9-3.17-5.9.29-11.82.16-17.71-.3-26.74-2.1-52.9-10.77-76.62-23.06-11.61-6.02-22.77-12.97-33.13-20.96-4.71-3.63-9.25-7.49-13.51-11.64-1.89-1.84-3.73-3.74-5.49-5.71-1.64-1.83-3.05-3.89-4.72-5.67-1.78-1.9-4.67-1.74-6.69-.35-.51.35-.73,1.02-.18,1.43s1.54.17,2.07-.19Z"/>
    </g>
    <g>
      <path class="cls-2" d="m265.63,131.72c-1.05-1.5-.68-3.56.81-4.6,1.49-1.04,3.56-.69,4.6.81,8.46,12.08,14.33,23.5,17.93,34.92,4.49,14.26,5.43,28.79,2.77,43.19-.19,1.05-.86,1.89-1.74,2.34-.63.32-1.36.45-2.11.31-1.8-.33-2.98-2.05-2.65-3.85,4.49-24.38-1.74-47.62-19.61-73.12Z"/>
      <path class="cls-2" d="m267.08,131.33c-.62-.99-.81-2.17-.27-3.25.3-.61.63-1.06,1.35-.86.58.16,1.08.64,1.44,1.1,1.97,2.5,3.64,5.35,5.32,8.05,3.12,5.04,5.95,10.26,8.36,15.68,4.86,10.93,7.91,22.64,8.42,34.61.27,6.29-.13,12.63-1.23,18.83-.21,1.17-.56,3.21-2.14,2.4-1.02-.52-1.67-1.62-1.69-2.77s.37-2.43.54-3.6c.2-1.36.37-2.72.51-4.08,1.03-10.31.02-20.72-2.85-30.67-3.68-12.79-10.17-24.57-17.76-35.43-.46-.66-3.08.52-2.9.78,7.55,10.81,14.02,22.53,17.71,35.24,3.2,11.03,4.1,22.6,2.53,33.98-.33,2.38-1.61,5.54.76,7.26,2,1.46,5.59.6,7.16-1.16.8-.9.91-2.04,1.11-3.18.31-1.87.57-3.76.76-5.64.35-3.44.51-6.9.45-10.36-.21-13.35-3.6-26.43-9.19-38.51-3.19-6.89-7.04-13.46-11.3-19.75-.82-1.21-1.62-2.91-2.99-3.59-1.22-.61-2.69-.48-3.96-.11-2.57.75-4.72,3.16-3.04,5.83.42.66,3.09-.47,2.9-.78Z"/>
    </g>
    <g>
      <path class="cls-2" d="m372.64,197.37c9.51-21.14,13.88-43.08,13.38-67.09-.4-18.8-3.77-38.7-10.61-62.61-.5-1.76.51-3.59,2.27-4.09,1.75-.5,3.59.51,4.09,2.27,10.37,36.24,19.39,84.25-3.09,134.23-.32.71-.86,1.25-1.5,1.58-.86.45-1.92.51-2.88.08-1.66-.75-2.41-2.71-1.66-4.37Z"/>
      <path class="cls-2" d="m374,197.47c7.91-17.64,12.44-36.56,13.33-55.87.83-18.08-1.35-36.16-5.25-53.8-1.1-4.98-2.33-9.93-3.66-14.85-.32-1.18-.64-2.35-.97-3.52-.3-1.09-.93-2.38-.65-3.52.6-2.47,2.99-1.32,3.55.51,2.29,7.55,4.15,15.27,5.79,22.99,3.67,17.3,5.66,35,4.84,52.69-.44,9.55-1.69,19.06-3.81,28.39-1.13,4.99-2.51,9.93-4.13,14.79-.86,2.58-1.79,5.14-2.78,7.68-.45,1.14-.91,2.28-1.39,3.41-.54,1.29-.99,2.82-1.76,3.98-.71,1.07-1.91.83-2.66-.07-.65-.77-.83-1.84-.46-2.78.56-1.44-2.33-1.23-2.73-.2-.7,1.79-.34,3.76,1.31,4.9,1.82,1.26,4.42.94,6.12-.37,1.01-.78,1.44-1.86,1.94-2.99.6-1.36,1.17-2.72,1.73-4.09,1-2.47,1.95-4.98,2.83-7.5,3.56-10.17,6.05-20.71,7.46-31.39,2.54-19.22,1.53-38.75-1.79-57.81-1.49-8.58-3.45-17.07-5.69-25.48-.53-1.98-1.07-3.95-1.63-5.92s-1.3-3.46-3.38-3.97c-1.91-.47-4.14.25-5.39,1.77-1.55,1.89-.73,3.92-.14,6.02,5.35,19.12,9.33,38.78,9.9,58.68.59,20.86-2.66,41.72-10.31,61.17-.92,2.35-1.91,4.68-2.94,6.99-.63,1.4,2.28,1.21,2.73.2Z"/>
    </g>
    <g>
      <path class="cls-2" d="m396,258.8c20.56-22.25,28.62-54.41,23.31-93.01-.25-1.81,1.02-3.48,2.82-3.73,1.81-.25,3.48,1.02,3.73,2.82,2.68,19.48,2.06,37.65-1.86,53.99-4.15,17.34-11.94,32.28-23.14,44.4-.27.29-.58.52-.91.69-1.2.62-2.71.46-3.76-.51-1.34-1.24-1.42-3.33-.18-4.67Z"/>
      <path class="cls-2" d="m397.34,258.83c8.33-9.05,14.61-19.79,18.69-31.38,4.49-12.73,6.31-26.26,6.31-39.72,0-3.69-.14-7.38-.41-11.06-.13-1.86-.3-3.72-.49-5.58s-.66-3.96-.7-5.91c-.04-1.59,1.11-3,2.61-1.8s1.29,3.64,1.49,5.3c.5,4.19.85,8.39,1.04,12.6.7,15.56-.88,31.33-5.69,46.19-2.25,6.95-5.2,13.66-8.91,19.95-1.8,3.04-3.76,5.99-5.89,8.81-1.08,1.43-2.2,2.83-3.37,4.2-.56.66-1.13,1.31-1.71,1.95-.73.81-1.25,1.5-2.36.85-1.61-.94-1.71-3.07-.61-4.41.45-.54-.38-.81-.78-.83-.68-.03-1.48.26-1.91.78-2.44,2.94.15,6.64,3.69,6.35,1.96-.16,3.26-1.16,4.53-2.56s2.54-2.9,3.74-4.41c4.77-5.99,8.75-12.56,11.96-19.5,6.94-15.01,10.01-31.57,10.33-48.04.08-4.39-.02-8.78-.3-13.17-.15-2.3-.34-4.6-.58-6.9-.12-1.13-.24-2.25-.38-3.37s-.15-2.29-.51-3.32c-1.14-3.27-5.68-3.2-7.93-1.2-1.2,1.07-1.5,2.43-1.3,3.97.27,2.1.53,4.21.74,6.32,1.51,15.29.98,30.91-2.8,45.85-3.33,13.19-9.26,25.68-17.92,36.22-1.06,1.29-2.16,2.54-3.29,3.77-.48.52.41.81.78.83.71.03,1.44-.27,1.91-.78Z"/>
    </g>
    <g>
      <path class="cls-2" d="m419.85,220.53c25.54-9.03,57.08-36.05,69.95-76.05.56-1.74,2.42-2.69,4.16-2.13,1.74.56,2.69,2.42,2.13,4.16-6.42,19.96-17.77,38.38-32.81,53.29-9.17,9.08-19.46,16.65-29.81,22-3.81,1.97-7.63,3.64-11.41,4.98-1.72.61-3.61-.29-4.22-2.01-.61-1.72.3-3.61,2.01-4.22Z"/>
      <path class="cls-2" d="m420.45,221.24c11.3-4.02,21.66-10.52,30.87-18.14,10.96-9.07,20.39-20.03,27.78-32.19,4.01-6.6,7.41-13.57,10.13-20.8.72-1.91,1.2-4.01,2.05-5.86s2.88-.98,3.39.7c.26.86-.03,1.67-.3,2.49-.33,1-.67,1.99-1.02,2.98-.7,1.96-1.45,3.9-2.25,5.83-6.36,15.36-15.65,29.48-27.23,41.41-6.29,6.47-13.23,12.32-20.74,17.32-3.59,2.39-7.31,4.59-11.16,6.54-2.09,1.05-4.21,2.03-6.38,2.93-1.01.42-2.04.82-3.06,1.2s-1.72.53-2.56-.24c-1.23-1.13-1.2-3.47.47-4.16.48-.2,1.13-.77.73-1.32s-1.44-.32-1.94-.12c-1.58.65-2.93,2.01-3.05,3.78s.91,3.27,2.49,3.92c1.97.82,3.86.03,5.72-.68,2.38-.9,4.73-1.92,7.02-3.02,8.49-4.07,16.41-9.31,23.69-15.28,14.09-11.56,25.78-25.99,34.13-42.2,2.05-3.98,3.9-8.07,5.54-12.24.8-2.03,1.55-4.09,2.24-6.16.58-1.71,1.12-3.36-.05-4.97-2.22-3.06-7.37-1.78-8.59,1.53-1.51,4.09-2.88,8.19-4.66,12.18-6.51,14.63-15.86,27.94-27.34,39.09-9.58,9.3-20.73,17.31-33.09,22.47-1.34.56-2.69,1.08-4.05,1.56-.49.17-1.12.79-.73,1.32.41.57,1.43.3,1.94.12Z"/>
    </g>
    <g>
      <path class="cls-2" d="m320.12,300.82c1.31-1.27,3.4-1.24,4.67.07,15.33,15.8,45.75,38.11,85.16,53.34,1.7.66,2.55,2.57,1.89,4.27-.3.78-.87,1.39-1.56,1.74-.81.42-1.79.5-2.71.15-40.41-15.62-71.71-38.6-87.52-54.9-1.27-1.31-1.24-3.4.07-4.67Z"/>
      <path class="cls-2" d="m321.07,301.46c1.41-1.22,2.52.2,3.52,1.21.88.89,1.78,1.76,2.69,2.63,1.95,1.85,3.95,3.66,5.99,5.42,4.76,4.1,9.73,7.97,14.83,11.64,12.4,8.92,25.62,16.7,39.35,23.39,3.77,1.84,7.59,3.6,11.44,5.27,2.03.88,4.07,1.74,6.12,2.57,1,.41,2.01.81,3.01,1.2.91.36,1.82.63,2.29,1.56.37.72.39,1.64,0,2.36-.54,1.02-1.38.95-2.34.59-2.09-.77-4.16-1.64-6.22-2.5-3.96-1.65-7.88-3.39-11.76-5.21-14.16-6.67-27.8-14.51-40.64-23.47-9.73-6.79-19.14-14.22-27.47-22.7-1.18-1.2-1.89-2.73-.56-4.16.47-.5.23-1.13-.37-1.36-.67-.26-1.58.04-2.05.55-1.19,1.29-1.65,3.1-.86,4.72.59,1.22,1.84,2.19,2.79,3.13,2.03,2,4.12,3.93,6.25,5.82,5,4.43,10.24,8.58,15.64,12.52,13.28,9.7,27.51,18.13,42.31,25.3,4.12,2,8.29,3.91,12.51,5.71,2.18.93,4.38,1.84,6.58,2.72,2.06.82,4.01,1.8,6.24.97,3.44-1.28,4.41-6,.87-7.83-2.04-1.05-4.34-1.73-6.46-2.61s-4.2-1.77-6.28-2.69c-15.6-6.91-30.59-15.26-44.62-24.98-5.73-3.97-11.3-8.17-16.64-12.66-2.29-1.93-4.54-3.9-6.72-5.95-.96-.9-1.9-1.81-2.83-2.74-1.02-1.02-1.97-2.27-3.38-2.74-1.76-.59-3.76-.13-5.15,1.08-1.48,1.29.83,2.21,1.91,1.27Z"/>
    </g>
    <g>
      <path class="cls-2" d="m326.23,282.16c-5.59-7.61-11.51-11.21-11.6-11.26-1.57-.93-2.09-2.95-1.16-4.52.93-1.57,2.96-2.09,4.53-1.17.28.17,6.97,4.17,13.36,12.77,5.86,7.89,12.62,21.34,11.51,40.63-.07,1.21-.78,2.23-1.79,2.75-.51.26-1.09.4-1.7.36-1.82-.1-3.22-1.67-3.11-3.49.79-13.79-2.59-25.92-10.04-36.07Z"/>
      <path class="cls-2" d="m327.68,281.77c-2.72-3.67-5.87-7.04-9.5-9.83-.69-.53-1.41-1.02-2.13-1.51-1.42-.96-2.44-3.47-.75-4.8.34-.27-.01-.25.59-.21.22.01.59.21.74.29.05.03.1.06.15.09.29.16.56.36.83.54,1.18.8,2.31,1.68,3.41,2.59,3.63,3.03,6.87,6.56,9.61,10.42,4.5,6.34,7.66,13.59,9.36,21.17,1.12,4.99,1.61,10.12,1.54,15.24-.02,1.29.16,2.91-.32,4.12-.19.49-.59,1.18-1.13,1.19s-1.27-.55-1.62-.96c-.8-.92-.75-2-.7-3.14.06-1.28.08-2.57.06-3.85-.15-11.28-3.49-22.21-10.15-31.35-.54-.73-3.16.41-2.9.78,6.66,9.14,10.01,20.07,10.15,31.35.02,1.43-.02,2.86-.08,4.29-.05,1.22.19,2.31,1.12,3.17,1.77,1.64,4.86,1.08,6.67-.19,2.25-1.58,1.81-4.67,1.81-7.08,0-2.99-.19-5.98-.59-8.94-1.23-9.18-4.52-18.07-9.75-25.73-2.8-4.1-6.12-7.86-9.89-11.09-1.79-1.54-4.31-4.05-6.84-4.19-2.37-.13-5.42,1.19-5.77,3.8-.24,1.8.84,2.91,2.2,3.82,4.26,2.86,7.94,6.7,10.98,10.8.54.73,3.16-.42,2.9-.78Z"/>
    </g>
    <g>
      <path class="cls-2" d="m405.74,298.5c40.37-7.41,72.39-19.36,95.15-35.51,15.82-11.23,27.88-25.08,37.95-43.59.87-1.6,2.88-2.2,4.48-1.33,1.6.87,2.2,2.88,1.32,4.48-10.56,19.43-23.25,33.99-39.93,45.82-5.81,4.12-12.19,7.98-19.13,11.56-21.17,10.94-47.52,19.34-78.65,25.06-1.8.33-3.52-.86-3.85-2.65-.33-1.8.86-3.52,2.65-3.85Z"/>
      <path class="cls-2" d="m405.53,299.24c22.8-4.2,45.48-10.12,66.75-19.47,18.33-8.06,35.56-18.82,49.15-33.67,3.67-4.01,7.06-8.28,10.17-12.74,1.59-2.29,3.12-4.62,4.57-7,.73-1.19,1.44-2.39,2.13-3.6s1.28-2.87,2.25-3.9c.88-.94,2.18.1,2.67,1,.76,1.38.15,2.61-.54,3.85-1.39,2.51-2.85,4.99-4.37,7.43-2.95,4.72-6.16,9.27-9.66,13.6-14.3,17.69-33.29,30.45-53.94,39.64-10.17,4.53-20.68,8.25-31.35,11.39-5.77,1.69-11.59,3.22-17.44,4.59-3.13.74-6.27,1.43-9.42,2.09-1.56.32-3.11.64-4.67.94-.78.15-1.55.3-2.33.45-.83.16-1.82.52-2.65.47-2.33-.16-3.48-4.53-.93-5.14.39-.09,1.42-.48,1.27-1.04s-1.27-.35-1.62-.27c-2.26.53-4.38,2.36-3.93,4.89.48,2.67,3.27,3.31,5.55,2.92,6.69-1.16,13.35-2.63,19.96-4.2,11.98-2.85,23.82-6.32,35.36-10.61,22.02-8.19,43.36-19.58,60.05-36.36,8.2-8.25,15.17-17.6,21.02-27.65.75-1.29,1.48-2.59,2.2-3.89.56-1.03.93-2.1.58-3.28-.73-2.46-3.51-3.12-5.73-2.5-2.9.81-3.83,3.58-5.21,5.96-1.52,2.63-3.11,5.21-4.79,7.73-6.31,9.49-13.83,18.12-22.53,25.48-7.91,6.69-16.68,12.29-25.86,17.08-20.78,10.83-43.55,17.6-66.41,22.41-3.28.69-6.57,1.33-9.86,1.94-.43.08-1.63.34-1.66.94s.8.61,1.23.54Z"/>
    </g>
    <g>
      <path class="cls-2" d="m497.26,223.49c.6-1.73,2.48-2.64,4.2-2.05,1.73.59,2.64,2.48,2.05,4.2-.09.26-8.89,26.11-5.42,43.63.29,1.48-.45,2.92-1.72,3.58-.27.14-.56.24-.88.31-1.79.36-3.53-.81-3.89-2.6-3.82-19.25,5.26-45.94,5.65-47.07Z"/>
      <path class="cls-2" d="m498.64,223.64c.98-2.44,3.71-.89,3.57,1.3-.03.48-.21.91-.35,1.37-.67,2.09-1.29,4.21-1.86,6.33-2.04,7.61-3.58,15.42-4.05,23.29-.25,4.14-.2,8.33.46,12.43.17,1.07.56,2.23-.17,3.19-.62.82-1.62.76-2.36.1-.81-.73-.9-1.84-1.07-2.85s-.31-2.1-.41-3.16c-.85-8.72.31-17.63,2.06-26.18,1.09-5.33,2.42-10.67,4.19-15.82.54-1.56-2.36-1.49-2.76-.3-1.76,5.13-3.11,10.42-4.22,15.72-2,9.55-3.26,19.57-1.93,29.3.31,2.25.6,4.62,3,5.56,2.19.86,4.93.02,6.22-1.97s.29-4.52.06-6.7c-.25-2.4-.3-4.82-.23-7.23.26-8.85,1.99-17.67,4.31-26.2.55-2.04,1.16-4.01,1.79-6,.69-2.17-.22-4.43-2.42-5.28-2.51-.96-5.58.29-6.58,2.79-.61,1.52,2.3,1.47,2.76.3Z"/>
    </g>
  </g>
  <path class="cls-5" d="m62.75,272.83c8.68-1.16,37.33-5.35,47.21-6.67,11.42-1.54,41.85-4.95,51.78-6.29,14.49-1.94,25.92-10.98,25.5-20.17-.42-9.21-12.52-15.1-27.03-13.14-4.98.66-9.53,2.2-13.42,4.25-4.39-10.6-20.39-16.83-39.1-14.34-16.75,2.26-30.69,10.82-35.85,20.95-3.33-.42-6.94-.42-10.71.08-15.37,2.08-27.48,11.64-27.03,21.39.44,9.77,13.27,16,28.65,13.94"/>
  <path class="cls-5" d="m476.77,139.06c-3.08-.72-6.67-1.16-10.53-1.16-11.31,0-20.46,3.53-20.46,7.88s9.16,7.89,20.46,7.89c7.73,0,31.4-.3,40.29-.3,7.7,0,30.03.16,36.79.16,11.97,0,21.68-3.75,21.68-8.36s-9.71-8.37-21.68-8.37c-2.94,0-5.73.23-8.29.64-4.36-4.44-15.45-7.6-28.5-7.6-14.58,0-26.73,3.95-29.76,9.21"/>
  <path class="cls-5" d="m128.44,51.79c-4.73-1.46-10.22-2.33-16.16-2.33-17.32,0-31.36,7.11-31.36,15.9s14.04,15.9,31.36,15.9c11.87,0,48.16-.6,61.79-.6,11.81,0,46.03.33,56.4.33,18.36,0,33.24-7.55,33.24-16.86s-14.88-16.86-33.24-16.86c-4.51,0-8.79.47-12.71,1.29-6.69-8.95-23.7-15.33-43.69-15.33-22.34,0-40.99,7.94-45.63,18.57"/>
  <g>
    <path class="cls-3" d="m175.52,118.54c.21.12.44.22.65.34l12.69,6.55.95.49c-.32,1.13-.73,1.8-2.04,1.78-1.32.02-2.51.77-3.1,1.95-1.09,1.95-2.15,3.94-3.07,5.97-.85,2-.1,4.31,1.75,5.44,2.07,1.26,4.76.62,6.03-1.45.31-.52.6-1.04.94-1.62,2.25,1.16,4.41,2.25,6.54,3.4.23.21.37.51.38.82,0,1.5.76,2.88,2.03,3.68.54.34,1.1.66,1.71,1.03-.65,1.24-1.24,2.44-1.89,3.6-.56,1-1,2.06-1.3,3.17-.19,2.26,1.2,4.35,3.35,5.06,3.07,1.51,6.1,3.1,9.13,4.71,1.73,1.1,3.99.95,5.55-.39.76-.85,1.38-1.81,1.83-2.85.6-1.26,1.26-2.48,1.92-3.77.47.24.82.44,1.18.6,1.16.76,2.62.83,3.84.2,1.36-.93,2.35-.47,3.5.22.77.46,1.59.82,2.39,1.24l2.58,1.32c-.31.6-.6,1.08-.81,1.59-.96,2.1-.11,4.59,1.93,5.68,2.14,1.14,4.79.33,5.94-1.8.98-1.8,1.91-3.62,2.82-5.46.66-1.31.61-2.86-.15-4.11-.62-1.12-.6-1.34.38-2.48l.96.5c4.28,2.21,8.58,4.41,12.85,6.64.69.48,1.57.59,2.36.3l.51-.99c-.12-.81-.67-1.48-1.44-1.78-4.41-2.25-8.79-4.53-13.19-6.8l-.86-.44c.94-2.12.98-2.89.09-3.28-1.76-.76-1.96.96-2.72,1.91l-.91-.47-13.02-6.71c-1.33-.68-2.15-.61-2.6.27-.45.88-.08,1.55,1.29,2.25,4.31,2.23,8.63,4.46,12.94,6.68l1,.51c-.35,1.04-.66,1.77-1.97,1.75-1.37.02-2.62.81-3.23,2.04-.28.51-.54,1.03-.85,1.64-2.33-1.2-4.54-2.32-6.72-3.5-.18-.09-.28-.44-.29-.68.04-1.73-.95-3.32-2.5-4.06-7.02-3.64-14.05-7.26-21.07-10.87-1.13-.73-2.57-.8-3.75-.15-1.37.96-2.37.44-3.49-.24-.4-.25-.82-.44-1.24-.65l-3.72-1.91c.3-.57.54-1.03.77-1.5.64-1.27.6-2.79-.12-4.02-.67-1.24-.67-1.31.32-2.53l.95.49c4.28,2.21,8.57,4.42,12.85,6.63.33.18.67.32,1.02.45.58.24,1.23,0,1.53-.54.41-.51.36-1.26-.12-1.7-.3-.27-.64-.5-1-.68-4.37-2.25-8.74-4.51-13.11-6.76l-.93-.48c.42-1.14,1.66-2.4.06-3.25-1.64-.85-1.96.93-2.68,1.89l-.94-.48c-4.45-2.3-8.91-4.59-13.36-6.88-1.02-.53-1.85-.34-2.25.48-.38.78-.07,1.47.92,2.03"/>
    <path class="cls-1" d="m175.52,118.54c.21.12.44.22.65.34l12.69,6.55.95.49c-.32,1.13-.73,1.8-2.04,1.78-1.32.02-2.51.77-3.1,1.95-1.09,1.95-2.15,3.94-3.07,5.97-.85,2-.1,4.31,1.75,5.44,2.07,1.26,4.76.62,6.03-1.45.31-.52.6-1.04.94-1.62,2.25,1.16,4.41,2.25,6.54,3.4.23.21.37.51.38.82,0,1.5.76,2.88,2.03,3.68.54.34,1.1.66,1.71,1.03-.65,1.24-1.24,2.44-1.89,3.6-.56,1-1,2.06-1.3,3.17-.19,2.26,1.2,4.35,3.35,5.06,3.07,1.51,6.1,3.1,9.13,4.71,1.73,1.1,3.99.95,5.55-.39.76-.85,1.38-1.81,1.83-2.85.6-1.26,1.26-2.48,1.92-3.77.47.24.82.44,1.18.6,1.16.76,2.62.83,3.84.2,1.36-.93,2.35-.47,3.5.22.77.46,1.59.82,2.39,1.24l2.58,1.32c-.31.6-.6,1.08-.81,1.59-.96,2.1-.11,4.59,1.93,5.68,2.14,1.14,4.79.33,5.94-1.8.98-1.8,1.91-3.62,2.82-5.46.66-1.31.61-2.86-.15-4.11-.62-1.12-.6-1.34.38-2.48l.96.5c4.28,2.21,8.58,4.41,12.85,6.64.69.48,1.57.59,2.36.3l.51-.99c-.12-.81-.67-1.48-1.44-1.78-4.41-2.25-8.79-4.53-13.19-6.8l-.86-.44c.94-2.12.98-2.89.09-3.28-1.76-.76-1.96.96-2.72,1.91l-.91-.47-13.02-6.71c-1.33-.68-2.15-.61-2.6.27-.45.88-.08,1.55,1.29,2.25,4.31,2.23,8.63,4.46,12.94,6.68l1,.51c-.35,1.04-.66,1.77-1.97,1.75-1.37.02-2.62.81-3.23,2.04-.28.51-.54,1.03-.85,1.64-2.33-1.2-4.54-2.32-6.72-3.5-.18-.09-.28-.44-.29-.68.04-1.73-.95-3.32-2.5-4.06-7.02-3.64-14.05-7.26-21.07-10.87-1.13-.73-2.57-.8-3.75-.15-1.37.96-2.37.44-3.49-.24-.4-.25-.82-.44-1.24-.65l-3.72-1.91c.3-.57.54-1.03.77-1.5.64-1.27.6-2.79-.12-4.02-.67-1.24-.67-1.31.32-2.53l.95.49c4.28,2.21,8.57,4.42,12.85,6.63.33.18.67.32,1.02.45.58.24,1.23,0,1.53-.54.41-.51.36-1.26-.12-1.7-.3-.27-.64-.5-1-.68-4.37-2.25-8.74-4.51-13.11-6.76l-.93-.48c.42-1.14,1.66-2.4.06-3.25-1.64-.85-1.96.93-2.68,1.89l-.94-.48c-4.45-2.3-8.91-4.59-13.36-6.88-1.02-.53-1.85-.34-2.25.48-.38.78-.07,1.47.92,2.03"/>
  </g>
  <line class="cls-6" x1="10.1" y1="482.31" x2="589.9" y2="482.31"/>
  <g>
    <path class="cls-4" d="m136.7,432.15c3.35,10.43,13.09,8.27,18.81,13.57,6.94,6.44,10.27,21.18-3.53,32.01-19.3,15.15-36.21-3.33-63.1,6.19-21.51,7.62-36.16-10.96-41.43-25.06-5.09-13.61,3.44-36.66,13.97-56.18,10.53-19.52,33.03-22.22,56.7-10.14,15.72,8.02,15.22,29.17,18.57,39.6Z"/>
    <path class="cls-2" d="m135.25,432.54c.85,2.56,2.21,4.87,4.3,6.61,1.77,1.48,3.94,2.42,6.09,3.2s4.3,1.39,6.27,2.46,3.47,2.6,4.72,4.4c2.64,3.8,3.82,8.55,3.29,13.15-.7,6.04-4.35,11.12-9.06,14.78-4.3,3.34-9.28,5.33-14.72,5.65-5.08.3-10.15-.6-15.15-1.39-5.64-.88-11.3-1.63-17.02-1.43-3.21.11-6.41.53-9.55,1.23-3.35.75-6.52,2.12-9.87,2.83-11.33,2.4-21.57-3.71-28.33-12.45-3.04-3.93-5.52-8.33-7.26-12.98-1.96-5.25-1.78-11.01-.95-16.47,1.04-6.82,3.18-13.44,5.7-19.84,2.7-6.86,5.85-13.62,9.47-20.04,2.72-4.83,6.62-9.07,11.47-11.82s10.22-3.96,15.72-4.04c6.27-.1,12.52,1.28,18.38,3.42s11.5,4.56,15.46,9.28c6.51,7.75,7.76,18.24,9.67,27.82.38,1.89.79,3.78,1.37,5.62.44,1.39,3.33.6,2.9-.78-1.36-4.31-1.94-8.84-2.84-13.26-1.05-5.19-2.4-10.35-4.8-15.09s-6.22-9.06-11.12-11.65c-6.19-3.28-12.94-5.72-19.85-6.89-11.67-1.98-24.11.25-32.83,8.71-4.88,4.73-7.84,10.88-10.77,16.92-3.33,6.89-6.3,13.99-8.46,21.33-1.84,6.22-3.25,12.76-2.97,19.28.23,5.34,2.01,10.11,4.53,14.78,5.19,9.61,13.69,18.36,24.79,20.45,2.93.55,5.97.6,8.91.19,3.56-.5,6.82-1.84,10.27-2.76,6.31-1.69,12.82-1.91,19.3-1.24,10.78,1.13,21.87,4.62,32.46.6s20.22-15.14,17.83-27.37c-.86-4.43-3.25-8.95-6.91-11.69-3.87-2.9-8.97-3.23-12.94-5.93-2.29-1.56-3.74-3.8-4.61-6.4-.46-1.38-3.35-.59-2.9.78Z"/>
  </g>
  <g>
    <path class="cls-4" d="m460.54,423.48c-3.72,11.59-14.55,9.19-20.91,15.09-7.72,7.16-11.42,23.54,3.92,35.58,21.46,16.84,40.25-3.7,70.13,6.88,23.9,8.46,40.19-12.18,46.05-27.85,5.65-15.12-3.82-40.75-15.53-62.44-11.71-21.69-36.72-24.7-63.02-11.27-17.47,8.92-16.92,32.43-20.64,44.01Z"/>
    <path class="cls-2" d="m459.15,423.29c-.98,2.96-2.6,5.52-5.24,7.24-2.14,1.39-4.62,2.15-7.01,3-2.53.89-5.05,1.86-7.21,3.48-2,1.5-3.62,3.52-4.9,5.66-2.85,4.74-3.91,10.47-2.96,15.92,1.21,6.93,5.7,12.72,11.21,16.89,5.04,3.81,10.97,6.14,17.28,6.61,5.93.44,11.81-.52,17.65-1.44,6.55-1.03,13.17-1.98,19.82-1.61,3.79.21,7.57.8,11.23,1.81s7.26,2.48,11.12,3c13.16,1.76,24.93-5.36,32.71-15.53,3.5-4.58,6.43-9.76,8.37-15.19,2.16-6.02,1.93-12.65.97-18.89-1.22-7.93-3.75-15.64-6.72-23.07-3.1-7.75-6.62-15.6-10.92-22.77-3.34-5.56-8.02-10.31-13.73-13.43s-11.94-4.51-18.33-4.66c-7.3-.18-14.62,1.32-21.48,3.75s-13.54,5.25-18.42,10.55c-8.03,8.7-9.69,21-11.88,32.15-.43,2.2-.88,4.41-1.56,6.54-.52,1.63,2.37,1.68,2.79.39,1.46-4.59,2.12-9.4,3.05-14.12,1.09-5.54,2.43-11.08,4.86-16.2s6.24-9.88,11.4-12.68c6.52-3.54,13.74-6.13,21.06-7.42,12.37-2.17,25.6.31,34.51,9.68,5.11,5.36,8.27,12.33,11.39,18.96,3.46,7.34,6.53,14.9,8.77,22.71,1.88,6.59,3.29,13.51,2.91,20.4-.32,5.64-2.37,10.74-5.09,15.64-5.54,9.99-14.73,19.57-26.61,21.03-3.26.4-6.54.19-9.75-.52-3.74-.83-7.29-2.35-11.05-3.16-6.7-1.46-13.59-1.54-20.39-.81-11.16,1.2-23.05,5.06-34.02.9-11.7-4.44-21.32-16.56-17.8-29.47,1.22-4.47,3.96-9.02,8.15-11.26,4.51-2.4,9.83-3.02,13.84-6.38,2.29-1.93,3.84-4.47,4.78-7.29.54-1.62-2.36-1.68-2.79-.39Z"/>
  </g>
  <g class="cls-7">
    <path class="cls-2" d="m218.08,343.22c8.93-.67,15.59-8.25,14.83-16.85-.66-8.65-8.49-15.1-17.36-14.46-8.96.73-15.62,8.25-14.93,16.91.73,8.65,8.49,15.1,17.45,14.4"/>
    <path class="cls-2" d="m227.42,348.83l32.24,22.19c1.06.8,1.78,1.83,2.22,2.98l7.07,26.92c.06.32.13.58.13.85.31,3.43-2.63,6.38-6.66,6.64-3.72.24-6.88-2.18-7.69-5.15l-5.97-23.09-11.26-7.73,17.23,64.83,20.64,29.41c.63,1.04,1.34,2.55,1.47,3.99.5,5.1-3.97,9.57-10.01,9.94-4.22.29-7.94-1.57-10.13-4.46l-22.23-31.83c-.44-.82-1.97-2.9-2.16-3.88l-5.35-20.96-23.17,21.52-7.26,32.34c-1.16,3.85-4.82,6.96-9.79,7.31-5.97.37-11.23-3.35-11.66-8.5-.06-.61.06-1.09,0-1.86l7.69-34.51c.25-1.04.69-2.07,1.34-2.95l28.49-28.59-7.29-27.21-6.04,10.23c-.5.66-1.09,1.3-1.85,1.81l-24.11,14.11c-1.09.43-2.1.85-3.31.9-3.97.29-7.44-2.23-7.76-5.61-.25-2.18.94-4.17,2.81-5.39l22.11-12.94,16.2-27.29c2.75-3.53,7.25-6.43,12.76-6.8,4.28-.32,8.13.93,11.29,2.82h0Z"/>
  </g>
  <path class="cls-2" d="m216.75,290.46h-10.72v-1.07c0-1.82.21-3.31.62-4.44s1.03-2.18,1.85-3.12,2.66-2.6,5.52-4.97c1.52-1.24,2.29-2.38,2.29-3.41s-.31-1.84-.92-2.41-1.54-.86-2.78-.86c-1.34,0-2.44.44-3.31,1.33s-1.43,2.43-1.68,4.63l-10.95-1.35c.38-4.02,1.84-7.26,4.39-9.72s6.46-3.68,11.72-3.68c4.1,0,7.41.86,9.93,2.57,3.42,2.31,5.13,5.4,5.13,9.25,0,1.6-.44,3.14-1.33,4.63s-2.69,3.3-5.42,5.44c-1.9,1.5-3.1,2.71-3.6,3.63s-.75,2.1-.75,3.57Zm-11.09,2.85h11.48v10.13h-11.48v-10.13Z"/>
  <path class="cls-2" d="m189.77,301.43l-4.56,4.62-.46-.46c-.79-.78-1.34-1.5-1.65-2.16s-.5-1.37-.56-2.12.01-2.25.2-4.49c.11-1.18-.05-2-.5-2.44s-.92-.65-1.43-.63-1.02.3-1.55.83c-.57.58-.85,1.24-.84,1.99s.44,1.65,1.28,2.69l-5.24,4.14c-1.58-1.87-2.35-3.88-2.32-6.03s1.16-4.35,3.4-6.62c1.74-1.77,3.52-2.83,5.33-3.19,2.45-.49,4.51.08,6.17,1.72.69.68,1.17,1.53,1.43,2.54s.28,2.56.04,4.65c-.16,1.46-.15,2.49.03,3.09s.59,1.22,1.22,1.84Zm-3.49,5.99l4.88-4.95,4.37,4.31-4.88,4.95-4.37-4.31Z"/>
  <path class="cls-2" d="m239.39,302.22l-5.68-3.14.31-.57c.53-.97,1.08-1.69,1.63-2.17s1.18-.85,1.89-1.11,2.17-.6,4.38-1.01c1.17-.21,1.91-.59,2.21-1.14s.38-1.06.22-1.55-.56-.91-1.22-1.27c-.71-.39-1.42-.48-2.15-.27s-1.47.87-2.25,1.96l-5.4-3.93c1.38-2.02,3.1-3.31,5.17-3.87s4.5-.06,7.29,1.48c2.17,1.2,3.68,2.63,4.51,4.27,1.14,2.23,1.14,4.37,0,6.41-.47.85-1.15,1.54-2.06,2.06s-2.39.96-4.47,1.3c-1.45.24-2.44.53-2.97.87s-1.01.89-1.44,1.67Zm-6.71-1.74l6.09,3.37-2.97,5.37-6.09-3.37,2.97-5.37Z"/>
</svg>