<?xml version="1.0" encoding="utf-8"?>
<!-- Generator: Adobe Illustrator 27.1.1, SVG Export Plug-In . SVG Version: 6.00 Build 0)  -->
<svg version="1.1" id="Layer_1" xmlns="http://www.w3.org/2000/svg" xmlns:xlink="http://www.w3.org/1999/xlink" x="0px" y="0px"
	 viewBox="0 0 157.54 122.46" style="enable-background:new 0 0 157.54 122.46;" xml:space="preserve">
<style type="text/css">
	.st0{fill:#FFFFFF;}
</style>
<path id="consultation" class="st0" d="M157.1,60.09c0-21.93-16.76-39.77-37.35-39.77h-15.04c-6.41,0-12.44,1.73-17.71,4.77
	C81.46,10.49,68.06,0.14,52.39,0.14H37.35C16.75,0.14,0,17.98,0,39.91v3.84c0,0.42,0.01,0.85,0.03,1.31
	c-0.32,21.02,4.36,36.42,13.9,45.78c10.17,9.96,23.98,11.45,34.63,11.45c2.53,0,4.88-0.08,6.96-0.16c1.1-0.04,2.02-0.86,2.18-1.96
	c0.16-1.09-0.49-2.14-1.54-2.49c-9.58-3.19-16.95-10.15-20.64-14.21c0.61,0.03,1.22,0.05,1.83,0.05h15.04
	c6.4,0,12.41-1.76,17.67-4.8c5.53,14.62,18.96,24.97,34.64,24.97h15.04c0.61,0,1.22-0.02,1.83-0.05
	c-3.69,4.06-11.06,11.02-20.64,14.21c-1.05,0.35-1.7,1.4-1.54,2.49c0.16,1.09,1.08,1.92,2.18,1.96c2.08,0.08,4.43,0.16,6.96,0.16
	c10.65,0,24.46-1.49,34.62-11.45c9.54-9.35,14.22-24.75,13.91-45.81c0.02-0.43,0.03-0.85,0.03-1.28L157.1,60.09L157.1,60.09z
	 M68.68,74.29c-4.8,2.97-10.37,4.66-16.29,4.66H37.35c-1.8,0-3.65-0.17-5.48-0.5c-1.06-0.19-2.13,0.39-2.53,1.41l-0.4,1
	c-0.29,0.73-0.18,1.55,0.27,2.18c0.32,0.44,6.32,8.62,16.21,14.62c-9.3-0.32-20.28-2.23-28.29-10.08C8.51,79.14,4.3,64.86,4.6,45.14
	c0-0.04-0.01-0.23-0.01-0.27c-0.01-0.37-0.02-0.74-0.02-1.12v-3.84c0-19.41,14.71-35.2,32.78-35.2h15.04
	c14.08,0,26.08,9.59,30.71,22.99c-9.51,7.22-15.75,19.03-15.75,32.38v3.84C67.35,67.52,67.84,70.98,68.68,74.29z M152.53,63.93
	c0,0.37-0.01,0.75-0.03,1.12c0,0.04-0.01,0.23-0.01,0.27c0.3,19.72-3.92,34-12.53,42.44c-8.02,7.85-18.99,9.76-28.29,10.08
	c9.88-6,15.89-14.18,16.21-14.62c0.46-0.63,0.56-1.46,0.27-2.18l-0.4-1c-0.35-0.88-1.2-1.44-2.12-1.44c-0.14,0-0.27,0.01-0.41,0.04
	c-1.83,0.33-3.67,0.5-5.48,0.5H104.7c-18.08,0-32.78-15.79-32.78-35.2V60.1c0-19.41,14.71-35.2,32.78-35.2h15.04
	c18.08,0,32.78,15.79,32.78,35.2L152.53,63.93L152.53,63.93z M65.43,28.4c0,1.26-1.02,2.28-2.28,2.28h-40.8
	c-1.26,0-2.28-1.02-2.28-2.28s1.02-2.28,2.28-2.28h40.79C64.41,26.12,65.43,27.14,65.43,28.4z M60.82,43.38
	c0,1.26-1.02,2.28-2.28,2.28H22.35c-1.26,0-2.28-1.02-2.28-2.28s1.02-2.28,2.28-2.28h36.18C59.8,41.09,60.82,42.11,60.82,43.38z
	 M56.21,58.35c0,1.26-1.02,2.28-2.28,2.28H22.35c-1.26,0-2.28-1.02-2.28-2.28s1.02-2.28,2.28-2.28h31.57
	C55.19,56.06,56.21,57.09,56.21,58.35z M136.56,48.74c0,1.26-1.02,2.28-2.28,2.28h-40.8c-1.26,0-2.28-1.02-2.28-2.28
	s1.02-2.28,2.28-2.28h40.79C135.54,46.46,136.56,47.48,136.56,48.74z M136.56,63.72c0,1.26-1.02,2.28-2.28,2.28h-40.8
	c-1.26,0-2.28-1.02-2.28-2.28s1.02-2.28,2.28-2.28h40.79C135.54,61.43,136.56,62.45,136.56,63.72z M136.56,78.69
	c0,1.26-1.02,2.28-2.28,2.28h-40.8c-1.26,0-2.28-1.02-2.28-2.28s1.02-2.28,2.28-2.28h40.79C135.54,76.4,136.56,77.42,136.56,78.69z"
	/>
</svg>
