<?xml version="1.0" encoding="utf-8"?>
<!-- Generator: Adobe Illustrator 27.1.1, SVG Export Plug-In . SVG Version: 6.00 Build 0)  -->
<svg version="1.1" id="Layer_1" xmlns="http://www.w3.org/2000/svg" xmlns:xlink="http://www.w3.org/1999/xlink" x="0px" y="0px"
	 viewBox="0 0 128.7 130.51" style="enable-background:new 0 0 128.7 130.51;" xml:space="preserve">
<style type="text/css">
	.st0{fill:#FFFFFF;}
</style>
<path id="data" class="st0" d="M128.7,97.35V0H0v97.35h46.26v7.82H17.11v25.34h94.48v-25.34H82.44v-7.82
	C82.44,97.35,128.7,97.35,128.7,97.35z M104.74,112.02v11.63H23.96v-11.63h22.3v7.53h36.18v-7.53H104.74z M53.11,112.7V97.35h22.47
	v15.35L53.11,112.7L53.11,112.7z M46.26,90.49H6.86V6.85h114.99v83.64H82.44H46.26z M94.83,67.96L78.96,43.01L56.22,77.53
	L36.1,43.89L21.14,67.84v-13.7L35.5,29.11l21,35.12l22.56-34.24l15,23.58l9.27-18.69c-0.13-0.45-0.22-0.92-0.22-1.41
	c0-2.79,2.26-5.06,5.06-5.06c2.79,0,5.06,2.26,5.06,5.06c0,2.31-1.56,4.24-3.69,4.84L94.83,67.96z"/>
</svg>
