<?xml version="1.0" encoding="utf-8"?>
<!-- Generator: Adobe Illustrator 27.1.1, SVG Export Plug-In . SVG Version: 6.00 Build 0)  -->
<svg version="1.1" id="Layer_1" xmlns="http://www.w3.org/2000/svg" xmlns:xlink="http://www.w3.org/1999/xlink" x="0px" y="0px"
	 viewBox="0 0 180.43 45" style="enable-background:new 0 0 180.43 45;" xml:space="preserve">
<style type="text/css">
	.st0{fill:#28421F;}
	.st1{fill:#FE7F2D;}
	.st2{fill:#FFFFFF;}
</style>
<g>
	<path class="st2" d="M17.46,0.72c0.03,0,0.06,0,0.09,0L19.2,0.7l0.12,0c0.03,0.13,0.02,0.22-0.11,0.29C19.08,1.06,19,1.21,19,1.36
		C19,1.62,19,1.88,19.01,2.13c0.02,0.25,0.22,0.45,0.48,0.46c0.28,0.02,0.52-0.2,0.53-0.48c0-0.07,0.01-0.14,0.01-0.22
		c0.29,0,0.57-0.01,0.85-0.01c0.04,0.01,0.07,0.03,0.08,0.06c0.08,0.15,0.24,0.25,0.41,0.26c0.07,0.01,0.15,0.01,0.23,0.01
		c0,0.16,0.01,0.32,0,0.47c0,0.13,0.01,0.26,0.04,0.39c0.1,0.24,0.36,0.38,0.62,0.33c0.39-0.01,0.79-0.02,1.19-0.02
		c0.24,0.02,0.46-0.12,0.55-0.34c0.03-0.13,0.04-0.26,0.03-0.39c-0.01-0.16-0.01-0.32-0.01-0.49c0.06,0,0.11,0,0.15,0
		c0.16,0.01,0.31-0.06,0.4-0.19c0.09-0.17,0.21-0.18,0.37-0.17c0.1,0,0.21,0,0.31,0l0.34-0.01c0,0.08,0,0.14,0,0.21
		c0.02,0.27,0.24,0.47,0.51,0.47c0.28,0,0.51-0.23,0.51-0.51c0-0.24,0-0.47-0.01-0.71c0-0.17-0.09-0.32-0.24-0.41
		c-0.12-0.08-0.14-0.1-0.1-0.27l0.13,0c0.56-0.01,1.12-0.02,1.67-0.02c0.1,0.01,0.19-0.03,0.26-0.1l0-0.13
		c-0.06-0.08-0.15-0.11-0.24-0.1c-0.57,0.01-1.14,0.02-1.72,0.03l-0.11,0C26.23,0,26.19-0.08,26.08-0.07
		c-0.22,0.02-0.15,0.2-0.17,0.34l-0.12,0l-1.7,0.03c-0.17,0-0.25,0.05-0.25,0.17c0,0.11,0.08,0.16,0.25,0.16
		c0.56-0.01,1.12-0.02,1.68-0.03l0.13,0c0.02,0.13,0.03,0.22-0.1,0.29c-0.14,0.08-0.22,0.23-0.22,0.39c0,0.07,0,0.13,0,0.21
		c-0.3,0-0.59,0.01-0.88,0.01c-0.02,0-0.05-0.03-0.07-0.05c-0.09-0.18-0.28-0.29-0.48-0.28c-0.91,0.01-1.83,0.03-2.74,0.04
		c-0.16-0.01-0.31,0.06-0.39,0.19c-0.09,0.17-0.22,0.17-0.37,0.17c-0.05,0-0.11,0-0.16,0l-0.48,0.01c0-0.07,0-0.14,0-0.2
		c0-0.17-0.09-0.32-0.23-0.4c-0.14-0.09-0.14-0.1-0.11-0.28l0.12,0c0.56-0.01,1.12-0.02,1.67-0.03c0.04,0,0.09,0,0.13-0.01
		c0.07-0.01,0.13-0.07,0.13-0.14c0.01-0.07-0.03-0.15-0.11-0.17c-0.05-0.01-0.09-0.02-0.14-0.01c-0.57,0.01-1.14,0.02-1.71,0.03
		l-0.12,0c-0.02-0.14,0.04-0.34-0.17-0.33c-0.21,0-0.15,0.2-0.17,0.34l-0.12,0c-0.58,0.01-1.16,0.02-1.74,0.03
		c-0.13,0-0.21,0.07-0.2,0.17C17.26,0.67,17.33,0.72,17.46,0.72z"/>
	<path class="st2" d="M6.57,8.67c0.7-0.06,3.03-0.25,3.83-0.32c0.93-0.07,3.4-0.24,4.2-0.3c1.18-0.09,2.1-0.52,2.07-0.96
		c-0.03-0.44-1.02-0.72-2.19-0.62c-0.4,0.03-0.77,0.1-1.09,0.2c-0.36-0.5-1.66-0.8-3.17-0.68C8.86,6.1,7.73,6.51,7.31,6.99
		c-0.27-0.02-0.56-0.02-0.87,0c-1.25,0.1-2.23,0.55-2.19,1.02C4.28,8.47,5.32,8.77,6.57,8.67z"/>
	<path class="st2" d="M32.72,8.21c-0.25-0.06-0.54-0.09-0.86-0.09c-0.92,0-1.66,0.29-1.66,0.64c0,0.35,0.74,0.64,1.66,0.64
		c0.63,0,2.55-0.02,3.27-0.02c0.62,0,2.44,0.01,2.99,0.01c0.97,0,1.76-0.3,1.76-0.68c0-0.38-0.79-0.68-1.76-0.68
		c-0.24,0-0.47,0.02-0.67,0.05c-0.35-0.36-1.25-0.62-2.31-0.62C33.96,7.46,32.97,7.78,32.72,8.21z"/>
	<path class="st2" d="M24.11,5.15c-0.38-0.05-0.83-0.08-1.31-0.08c-1.41,0-2.55,0.25-2.55,0.55c0,0.3,1.14,0.55,2.55,0.55
		c0.96,0,3.91-0.02,5.02-0.02c0.96,0,3.74,0.01,4.58,0.01c1.49,0,2.7-0.26,2.7-0.58s-1.21-0.58-2.7-0.58
		c-0.37,0-0.71,0.02-1.03,0.04c-0.54-0.31-1.92-0.53-3.55-0.53C26,4.51,24.49,4.78,24.11,5.15z"/>
	<path class="st2" d="M19.54,11.26c-0.03-0.01-0.06-0.02-0.09-0.03c-0.04-0.01-0.08-0.03-0.11-0.04c-0.02-0.01-0.05-0.01-0.07-0.02
		c-0.07-0.01-0.13-0.02-0.2-0.02c-0.07,0-0.14,0.01-0.21,0.02c-0.03,0.01-0.06,0.02-0.1,0.03c-0.03,0.01-0.06,0.02-0.09,0.03
		c-0.04,0.02-0.08,0.03-0.12,0.05c-0.01,0.01-0.03,0.01-0.04,0.02c-0.05,0.03-0.09,0.05-0.13,0.09c-0.28,0.21-0.47,0.55-0.47,0.92
		c0,0.64,0.52,1.16,1.16,1.16c0.64,0,1.16-0.52,1.16-1.16C20.22,11.85,19.94,11.44,19.54,11.26z"/>
	<path class="st2" d="M26.42,11.19c-0.04,0.01-0.08,0.02-0.12,0.04c-0.03,0.01-0.05,0.02-0.08,0.03c-0.4,0.18-0.69,0.59-0.69,1.06
		c0,0.64,0.52,1.16,1.16,1.16c0.64,0,1.16-0.52,1.16-1.16c0-0.37-0.18-0.7-0.45-0.91c-0.05-0.04-0.09-0.07-0.14-0.1
		c-0.01-0.01-0.02-0.01-0.03-0.02c-0.04-0.02-0.09-0.04-0.14-0.06c-0.03-0.01-0.06-0.02-0.08-0.03c-0.04-0.01-0.07-0.02-0.11-0.03
		c-0.07-0.01-0.14-0.02-0.21-0.02c-0.07,0-0.14,0.01-0.21,0.02C26.46,11.18,26.44,11.18,26.42,11.19z"/>
	<path class="st2" d="M44.19,18.61c-0.02-0.27-0.04-0.72-0.11-1.08l-0.04-0.27l-0.02-0.06c-0.06-0.21-1.55-4.65-15.09-5.7
		c-0.04-0.1-0.07-0.19-0.12-0.28l0.17-0.17c0.07-0.07,0.08-0.18,0.03-0.26c-0.1-0.15-0.21-0.29-0.35-0.43
		c-0.14-0.14-0.28-0.26-0.43-0.35c-0.08-0.05-0.19-0.04-0.26,0.03l-0.17,0.17c-0.12-0.06-0.25-0.11-0.38-0.16V9.81
		c0-0.1-0.07-0.19-0.17-0.21c-0.37-0.07-0.74-0.07-1.11,0c-0.02,0-0.05,0.01-0.07,0.03c-0.16-0.24-0.36-0.41-0.54-0.45
		c-0.3-0.06-3.46-0.03-4.5-0.02c-0.08,0-0.15-0.03-0.21-0.09l-5.19-5.61l0.53-1.82c0.05-0.16-0.05-0.34-0.21-0.38l-0.27-0.08
		c-0.16-0.05-0.34,0.05-0.38,0.21l-1.07,3.7c-0.05,0.16,0.05,0.34,0.21,0.38l0.27,0.08c0.16,0.05,0.34-0.05,0.38-0.21l0.27-0.95
		l3.91,4.32c0.07,0.08,0.09,0.2,0.05,0.3c-0.04,0.1-0.14,0.17-0.25,0.17c-0.17,0-0.26,0-0.31,0c-0.08,0.02-0.2,0.03-0.43,0.03
		c-0.21,0.01-0.37,0.08-0.48,0.21c-0.11,0.14-0.17,0.34-0.2,0.55c-0.04,0-0.09,0.01-0.13,0.03c-0.15,0.1-0.29,0.21-0.43,0.35
		c-0.14,0.14-0.26,0.28-0.35,0.43c-0.05,0.08-0.04,0.19,0.03,0.26l0.17,0.17c-0.04,0.09-0.08,0.17-0.11,0.27
		c-10.4,0.75-14.4,3.42-15.8,4.8c-0.12,0.09-0.3,0.26-0.48,0.55C0.42,17,0.36,17.1,0.35,17.13l-0.04,0.08L0.3,17.29
		c0,0.02,0,0.03,0,0.05c-0.11,0.31-0.19,0.68-0.2,1.15C0.07,19.69,0,22.46,0,22.65v0.16c0.04,12.23,10.01,22.15,22.23,22.15
		c0.03,0,0.05,0,0.08,0c12.26-0.04,22.2-10.05,22.15-22.31C44.47,22.46,44.38,21.25,44.19,18.61z M34.29,17.65
		c3.21,0.62,5.29,1.46,6.62,2.24c0.02,0.79-0.04,1.55-0.14,2.36c-0.01,0.06-0.02,0.12-0.03,0.18c-2.05-1.05-4.29-1.73-6.56-2.2
		C34.26,19.38,34.31,18.51,34.29,17.65z M35.33,20.93c0.23,0.05,0.46,0.11,0.68,0.17c0.04,0.01,0.25,0.07,0.25,0.07
		c0.11,0.03,0.21,0.06,0.32,0.09c0.42,0.12,0.83,0.25,1.24,0.39c0.04,0.01,0.08,0.03,0.12,0.04c0.01,0,0.02,0.01,0.03,0.01
		c0.01,0,0.01,0,0.02,0.01c0.08,0.03,0.17,0.06,0.25,0.09c0.18,0.07,0.37,0.14,0.55,0.21c0.15,0.06,0.29,0.12,0.44,0.19
		c0.04,0.02,0.08,0.03,0.12,0.05c0,0,0,0,0,0c0,0,0,0,0,0c0.08,0.04,0.16,0.08,0.24,0.11c0.27,0.13,0.53,0.26,0.79,0.4
		c0.06,0.03,0.12,0.07,0.18,0.1c0.03,0.02,0.06,0.03,0.08,0.05c0.01,0.01,0.02,0.02,0.04,0.02c-0.34,2.34-1.05,4.62-2.07,6.76
		c-0.05,0.1-0.1,0.21-0.15,0.31c-0.38-0.2-0.78-0.37-1.18-0.54c-1.46-0.6-2.98-1.01-4.53-1.31c0.72-2.43,1.19-4.94,1.41-7.48
		C34.55,20.75,34.95,20.83,35.33,20.93z M36.18,29.47C36.21,29.48,36.25,29.49,36.18,29.47L36.18,29.47z M23.82,27.29
		c-0.18,0-0.36,0-0.54-0.01c0-0.28,0-0.55,0-0.83c0-2.24,0-4.48,0-6.73c2.32,0,4.64,0.1,6.94,0.35c0.99,0.11,1.97,0.24,2.95,0.41
		c-0.16,2.45-0.56,4.88-1.18,7.25c-0.02,0.09-0.05,0.17-0.07,0.26c0,0-0.01,0-0.01,0C29.24,27.52,26.52,27.34,23.82,27.29z
		 M31.8,28.41c-0.9,3.14-2.24,6.09-3.92,8.86c-1.41-0.17-2.84-0.22-4.26-0.23c-0.11,0-0.22,0-0.34,0c0-0.87,0-1.75,0-2.62
		c0-2.2,0-4.4,0-6.59c2.36,0,4.73,0.1,7.07,0.38C30.83,28.27,31.32,28.34,31.8,28.41z M33.2,20.05c-0.81-0.15-1.62-0.27-2.42-0.37
		c-2.49-0.32-4.99-0.47-7.5-0.5c0-0.62,0-1.25,0-1.87c0-0.19,0.01-0.38,0.01-0.57c4.1,0.02,7.37,0.31,9.96,0.74
		C33.3,18.3,33.25,19.21,33.2,20.05z M24.34,12.29L24.34,12.29c0-0.09,0.01-0.18,0.02-0.28h0.22c0.1,0,0.18-0.07,0.2-0.16l0,0
		c0,0,0,0,0,0c0.05-0.2,0.13-0.39,0.23-0.56c0.01-0.02,0.02-0.04,0.02-0.06c0-0.01,0-0.02,0-0.03c0-0.01,0-0.02,0-0.03
		c0-0.01,0-0.03-0.01-0.04c0,0,0-0.01,0-0.01c-0.01-0.02-0.01-0.03-0.02-0.05c-0.01-0.01-0.02-0.03-0.03-0.04l-0.15-0.15
		c0.06-0.08,0.13-0.15,0.2-0.23c0.08-0.08,0.15-0.14,0.23-0.2l0.14,0.14l0,0l0.02,0.02c0.07,0.07,0.17,0.08,0.26,0.03
		c0.17-0.11,0.36-0.18,0.56-0.23c0.09-0.02,0.16-0.11,0.16-0.2V9.98c0.2-0.03,0.4-0.03,0.61,0v0.22c0,0.1,0.07,0.18,0.16,0.2
		c0.2,0.05,0.39,0.13,0.56,0.23c0.08,0.05,0.19,0.04,0.26-0.03l0.15-0.15c0.08,0.06,0.15,0.13,0.23,0.2
		c0.08,0.08,0.14,0.15,0.2,0.23l-0.15,0.15c-0.07,0.07-0.08,0.17-0.03,0.26c0.03,0.06,0.06,0.12,0.09,0.17l0,0
		c0.06,0.12,0.11,0.25,0.14,0.39c0.02,0.09,0.11,0.16,0.2,0.16h0.22c0.01,0.1,0.02,0.2,0.02,0.3s-0.01,0.2-0.02,0.3H28.8
		c-0.1,0-0.18,0.07-0.2,0.16c-0.05,0.2-0.13,0.39-0.23,0.56c-0.05,0.08-0.04,0.19,0.03,0.26l0.15,0.15
		c-0.06,0.08-0.13,0.15-0.2,0.23c-0.08,0.08-0.15,0.14-0.23,0.2l-0.15-0.15c-0.07-0.07-0.18-0.08-0.26-0.03
		c-0.17,0.11-0.36,0.18-0.56,0.23c-0.09,0.02-0.16,0.11-0.16,0.2v0.22c-0.2,0.03-0.4,0.03-0.61,0v-0.22c0-0.1-0.07-0.18-0.16-0.2
		c-0.2-0.05-0.39-0.13-0.56-0.23c-0.08-0.05-0.19-0.04-0.26,0.03l-0.15,0.15c-0.08-0.06-0.15-0.13-0.23-0.2
		c-0.08-0.08-0.14-0.15-0.2-0.23l0.15-0.15c0.07-0.07,0.08-0.17,0.03-0.26c-0.09-0.15-0.16-0.32-0.21-0.49l0,0
		c-0.01-0.02-0.02-0.05-0.02-0.07c-0.02-0.09-0.11-0.16-0.2-0.16h-0.22c-0.01-0.1-0.02-0.2-0.02-0.3
		C24.34,12.31,24.34,12.3,24.34,12.29z M16.72,12.01h0.22c0.1,0,0.18-0.07,0.2-0.16c0.05-0.2,0.13-0.39,0.23-0.56
		c0.05-0.08,0.04-0.19-0.03-0.26l-0.15-0.15c0.06-0.08,0.13-0.15,0.2-0.23c0.08-0.08,0.15-0.14,0.23-0.2l0.15,0.15
		c0.07,0.07,0.17,0.08,0.26,0.03c0.17-0.11,0.36-0.18,0.56-0.23c0.02-0.01,0.04-0.01,0.06-0.02c0.01-0.01,0.02-0.01,0.02-0.02
		c0.01-0.01,0.01-0.01,0.02-0.02c0.01-0.01,0.02-0.02,0.03-0.03c0,0,0-0.01,0.01-0.01c0.01-0.02,0.01-0.03,0.02-0.05l0,0
		c0-0.02,0.01-0.03,0.01-0.05V9.98c0.2-0.03,0.4-0.03,0.61,0v0.22c0,0.04,0.01,0.08,0.04,0.12c0.01,0.02,0.03,0.04,0.05,0.05
		c0,0,0,0,0,0c0.02,0.01,0.04,0.03,0.07,0.03c0.2,0.05,0.39,0.13,0.56,0.23c0.02,0.01,0.04,0.02,0.05,0.02
		c0.02,0,0.03,0.01,0.05,0.01c0.05,0,0.11-0.02,0.15-0.06l0.15-0.15c0.08,0.06,0.15,0.13,0.23,0.2c0.08,0.08,0.14,0.15,0.2,0.23
		l-0.15,0.15c-0.05,0.05-0.07,0.12-0.06,0.18l0,0c0,0.03,0.01,0.05,0.03,0.07c0.11,0.17,0.18,0.36,0.23,0.56
		c0,0.01,0.01,0.01,0.01,0.02v0c0.03,0.08,0.11,0.14,0.2,0.14h0.22c0.01,0.09,0.02,0.19,0.02,0.28l0,0c0,0.01,0,0.02,0,0.03
		c0,0.1-0.01,0.2-0.02,0.3h-0.22c-0.1,0-0.18,0.07-0.2,0.16c-0.05,0.2-0.13,0.39-0.23,0.56c-0.05,0.08-0.04,0.19,0.03,0.26
		l0.15,0.15c-0.06,0.08-0.13,0.15-0.2,0.23c-0.07,0.07-0.15,0.14-0.23,0.2l-0.15-0.15c-0.07-0.07-0.17-0.08-0.26-0.03
		c-0.17,0.11-0.36,0.18-0.56,0.23c-0.09,0.02-0.16,0.11-0.16,0.2v0.22c-0.2,0.03-0.4,0.03-0.61,0v-0.22c0-0.1-0.07-0.18-0.16-0.2
		c-0.2-0.05-0.39-0.13-0.56-0.23c-0.08-0.05-0.19-0.04-0.26,0.03l-0.15,0.15c-0.08-0.06-0.15-0.13-0.23-0.2
		c-0.08-0.08-0.14-0.15-0.2-0.23l0.15-0.15c0.07-0.07,0.08-0.17,0.03-0.26c-0.11-0.17-0.18-0.36-0.23-0.56
		c-0.02-0.09-0.11-0.16-0.2-0.16h-0.22c-0.01-0.1-0.02-0.2-0.02-0.3C16.7,12.22,16.71,12.11,16.72,12.01z M12.06,26.1
		c0.12,0.56,0.29,1.21,0.49,1.88c-1.33,0.23-2.64,0.52-3.93,0.92c-0.72,0.23-1.44,0.49-2.14,0.8C5.5,27.62,4.7,25.43,4.27,23.2
		c1.57-0.86,3.3-1.46,5.02-1.92c0.66-0.18,1.33-0.33,2-0.47C11.41,22.58,11.68,24.35,12.06,26.1z M4.13,19.79
		C4.13,19.79,4.13,19.79,4.13,19.79c1.54-0.77,3.8-1.58,7.1-2.17c-0.05,0.63-0.04,1.28-0.02,1.91c0.01,0.17,0.01,0.35,0.02,0.52
		c-2.22,0.4-4.41,0.97-6.49,1.83c-0.2,0.09-0.41,0.17-0.61,0.27c-0.07-0.77-0.08-1.63-0.09-2.31C4.07,19.82,4.1,19.8,4.13,19.79z
		 M1.67,22.8v-0.15c0-0.09,0.02-0.58,0.04-1.26c0.32-0.3,0.78-0.67,1.44-1.07c-0.03,0.74,0.03,1.49,0.13,2.22
		c-0.55,0.28-1.09,0.59-1.59,0.94C1.69,23.26,1.67,23.03,1.67,22.8z M1.79,24.94c0.06-0.06,0.12-0.12,0.22-0.21
		c0.39-0.36,0.82-0.67,1.26-0.95c0.07-0.04,0.13-0.08,0.2-0.12c0.4,2.24,1.16,4.42,2.12,6.49c-0.2,0.11-0.4,0.22-0.59,0.34
		c-0.48,0.3-0.93,0.63-1.34,1.02C2.69,29.48,2.04,27.27,1.79,24.94z M11.45,39.97c-0.05,0.05-0.09,0.11-0.13,0.17
		c-2.93-1.84-5.36-4.4-7.05-7.43c0.34-0.51,0.88-0.93,1.34-1.28c0.14-0.11,0.29-0.21,0.44-0.31c0.08,0.17,0.17,0.34,0.25,0.51
		c1.39,2.68,3.3,4.93,5.59,6.89c0.22,0.19,0.45,0.38,0.67,0.56C12.15,39.33,11.77,39.62,11.45,39.97z M12.09,40.6
		c0.03-0.29,0.16-0.59,0.32-0.82c0.14-0.21,0.25-0.34,0.42-0.49c1.65,1.31,3.41,2.47,5.25,3.49c0.08,0.04,0.16,0.09,0.24,0.13
		C16.09,42.48,14,41.69,12.09,40.6z M19.49,42.81c-2.09-1.12-4.1-2.4-5.96-3.88c-0.03-0.02-0.06-0.05-0.08-0.07
		c0,0,0.01,0,0.01-0.01c0.01-0.01,0.02-0.01,0.03-0.02c0.04-0.02,0.08-0.04,0.13-0.06c0.02-0.01,0.03-0.02,0.04-0.02
		c0.01,0,0.02-0.01,0.04-0.02c0.27-0.1,0.38-0.14,0.65-0.22c0.6-0.18,1.21-0.31,1.83-0.42c0.17-0.03,0.33-0.05,0.5-0.08
		c1.17,1.9,2.48,3.59,4.09,5.17C20.34,43.13,19.91,43.04,19.49,42.81z M22.3,40.64c0,0.76,0,1.52,0,2.28c0,0.12,0,0.24-0.01,0.37
		c-0.02,0-0.04,0-0.06,0c-0.05,0-0.1,0-0.15,0c-1.26-1.08-2.42-2.23-3.37-3.59c-0.37-0.52-0.86-1.21-1.25-1.77
		c1.45-0.17,2.92-0.23,4.38-0.23c0.15,0,0.3,0,0.46,0C22.3,38.68,22.3,39.66,22.3,40.64z M22.3,33.77c0,1.09,0,2.19,0,3.28
		c-1.59,0.03-3.18,0.12-4.75,0.37c-0.13,0.02-0.26,0.04-0.39,0.07c-0.18-0.27-0.31-0.45-0.32-0.5c-0.26-0.38-0.18-0.5-0.75-0.92
		c-0.64-0.47-0.62-0.35-0.62-0.2l0.41,0.77c0.18,0.34,0.37,0.66,0.56,0.99c-0.92,0.2-1.82,0.46-2.67,0.84
		c-0.17,0.08-0.34,0.16-0.51,0.24c-2.08-1.7-4.06-3.84-5.53-6.55c-0.28-0.51-0.55-1.03-0.81-1.55c1.79-0.98,3.85-1.53,5.85-1.91
		c0.38,1.24,0.81,2.52,1.14,3.49c0.4-0.77,0.25-1.26,0.18-1.69c-0.05-0.34-0.17-0.78-0.23-1.01c-0.09-0.32-0.17-0.63-0.25-0.95
		c0.01,0,0.02,0,0.03-0.01c2.62-0.45,5.28-0.63,7.94-0.68c0.24,0,0.48-0.01,0.73-0.01C22.3,29.82,22.3,31.8,22.3,33.77z M22.3,19.17
		c-0.77,0-1.55,0.01-2.32,0.03c-0.25,0.01-0.29,0.12-0.08,0.26c0.24,0.17,0.64,0.3,0.94,0.3c0.49-0.01,0.98-0.02,1.47-0.03
		c0,2.02,0,4.04,0,6.07c0,0.49,0,0.99,0,1.48c-2.53-0.01-5.07,0.1-7.58,0.4c-0.43,0.05-0.85,0.11-1.28,0.17
		c-0.37-1.66-0.63-3.38-0.89-5.36c-0.08-0.63-0.15-1.26-0.2-1.9c1.01-0.18,2.04-0.33,3.06-0.45c0.3-0.04-0.07-0.29-0.16-0.33
		c-0.27-0.14-0.62-0.26-0.93-0.22c-0.67,0.08-1.34,0.17-2.02,0.28c-0.04-0.74-0.05-1.48-0.02-2.21c0-0.07,0.01-0.14,0.01-0.21
		c2.67-0.41,5.96-0.69,10-0.71C22.3,17.54,22.3,18.35,22.3,19.17z M21.78,12.85c0.03-0.18,0.05-0.36,0.05-0.53c0-0.01,0-0.02,0-0.03
		h2.09c0,0.01,0,0.02,0,0.03c0,0.18,0.02,0.36,0.05,0.53H21.78z M23.28,43.26c0-0.75,0-1.49,0-2.24c0-1.11,0-2.21,0-3.32
		c1.38,0.03,2.77,0.12,4.14,0.32c-0.8,1.25-1.66,2.47-2.58,3.65c-0.41,0.53-0.92,1.06-1.42,1.58
		C23.37,43.26,23.32,43.26,23.28,43.26z M25.95,42.95c-0.57,0.1-1.14,0.19-1.73,0.24c1.42-1.56,2.71-3.28,3.87-5.06
		c0.91,0.16,1.82,0.4,2.64,0.82c0.26,0.13,0.51,0.29,0.74,0.47c-1.55,1.32-3.25,2.48-5.09,3.36C26.24,42.85,26.09,42.9,25.95,42.95z
		 M29.83,41.83c0.77-0.54,1.5-1.11,2.2-1.72c0.1,0.18,0.16,0.38,0.18,0.59C31.45,41.12,30.65,41.5,29.83,41.83z M32.45,38.55
		c-0.01,0.01-0.03,0.02-0.04,0.04c-0.05-0.03-0.1-0.06-0.14-0.09c-0.9-0.54-1.95-0.81-2.97-1c-0.24-0.05-0.49-0.09-0.73-0.12
		c0.24-0.39,0.48-0.78,0.71-1.17c1.42-2.41,2.54-4.98,3.36-7.64c0.28,0.05,0.57,0.11,0.85,0.17c0.92,0.2,1.53,0.35,2.39,0.64
		c0.09,0.03,0.19,0.06,0.28,0.1c0,0,0.01,0,0.01,0c0.04,0.01,0.08,0.03,0.11,0.04c0.16,0.06,0.32,0.12,0.49,0.19
		c0.15,0.06,0.3,0.12,0.44,0.19c0,0,0.01,0,0.01,0c0.03,0.01,0.06,0.03,0.09,0.04c0.07,0.03,0.14,0.07,0.21,0.1
		c0.13,0.06,0.26,0.13,0.38,0.2c0.06,0.03,0.11,0.06,0.17,0.09c0,0,0,0,0.01,0c0.03,0.02,0.06,0.03,0.08,0.05
		c0.03,0.02,0.06,0.04,0.09,0.05C36.76,33.39,34.86,36.32,32.45,38.55z M33.45,39.94c-0.02-0.09-0.04-0.18-0.07-0.26
		c-0.07-0.19-0.18-0.36-0.31-0.51c2.29-2.15,4.32-4.64,5.79-7.41c0.12-0.22,0.23-0.44,0.34-0.67c0.14,0.11,0.27,0.23,0.39,0.36
		c0.11,0.11,0.21,0.22,0.31,0.34c0.01,0.01,0.01,0.01,0.02,0.02c0,0,0.01,0.01,0.01,0.02c0.02,0.02,0.04,0.05,0.06,0.07
		c0.04,0.05,0.07,0.1,0.11,0.15c0.1,0.14,0.17,0.29,0.23,0.44C38.69,35.51,36.32,38.07,33.45,39.94z M40.78,31.59
		c-0.15-0.14-0.3-0.27-0.43-0.38c-0.28-0.23-0.58-0.45-0.89-0.64c0.98-2.1,1.67-4.35,2.01-6.64c0.02-0.15,0.04-0.29,0.06-0.44
		c0,0,0,0,0.01,0c0.07,0.05,0.15,0.11,0.22,0.16c0.01,0.01,0.01,0.01,0.01,0c0.01,0.01,0.02,0.01,0.04,0.03
		c0.03,0.03,0.07,0.06,0.11,0.08c0.12,0.1,0.24,0.2,0.36,0.31c0.16,0.15,0.31,0.3,0.45,0.46C42.49,27.05,41.82,29.42,40.78,31.59z
		 M42.77,23.67C42.4,23.39,42,23.14,41.6,22.9c0.09-0.83,0.14-1.67,0.1-2.49c0.45,0.33,0.78,0.63,1,0.89
		c0.05,0.7,0.09,1.25,0.09,1.36C42.79,23,42.79,23.34,42.77,23.67z"/>
</g>
<g>
	<path class="st2" d="M49.19,3.78h7.65v2.6h-2.52v11.25h-2.67V6.38h-2.46V3.78z"/>
	<path class="st2" d="M59.1,3.78h7.56v2.58h-4.94v2.5h4.94v2.53h-4.94v3.64h4.94v2.59H59.1V3.78z"/>
	<path class="st2" d="M69.74,3.78h2.79c1.53,0,2.62,0.14,3.27,0.41c0.65,0.27,1.17,0.73,1.57,1.36c0.4,0.63,0.59,1.38,0.59,2.25
		c0,0.91-0.22,1.67-0.65,2.28c-0.44,0.61-1.09,1.07-1.97,1.39l3.28,6.16h-2.88l-3.11-5.86h-0.24v5.86h-2.64V3.78z M72.37,9.2h0.83
		c0.84,0,1.41-0.11,1.73-0.33s0.47-0.59,0.47-1.1c0-0.3-0.08-0.56-0.23-0.79c-0.16-0.22-0.37-0.38-0.63-0.48
		c-0.26-0.1-0.74-0.15-1.44-0.15h-0.72V9.2z"/>
	<path class="st2" d="M81.37,3.78h2.79c1.53,0,2.62,0.14,3.27,0.41c0.65,0.27,1.17,0.73,1.57,1.36c0.4,0.63,0.59,1.38,0.59,2.25
		c0,0.91-0.22,1.67-0.65,2.28c-0.44,0.61-1.09,1.07-1.97,1.39l3.28,6.16h-2.88l-3.11-5.86H84v5.86h-2.64V3.78z M84,9.2h0.83
		c0.84,0,1.42-0.11,1.73-0.33s0.47-0.59,0.47-1.1c0-0.3-0.08-0.56-0.23-0.79c-0.16-0.22-0.37-0.38-0.63-0.48
		c-0.26-0.1-0.74-0.15-1.44-0.15H84V9.2z"/>
	<path class="st2" d="M97.04,3.78h2.67l5.32,13.85h-2.74l-1.08-2.85h-5.65l-1.13,2.85H91.7L97.04,3.78z M98.39,7.45l-1.86,4.75h3.7
		L98.39,7.45z"/>
	<path class="st2" d="M114.78,5.67l-1.95,1.72c-0.68-0.95-1.38-1.43-2.09-1.43c-0.35,0-0.63,0.09-0.85,0.28
		c-0.22,0.18-0.33,0.39-0.33,0.63s0.08,0.45,0.24,0.66c0.21,0.28,0.86,0.87,1.93,1.78c1.01,0.84,1.62,1.37,1.83,1.59
		c0.53,0.54,0.91,1.06,1.14,1.55c0.22,0.49,0.33,1.03,0.33,1.61c0,1.14-0.39,2.07-1.18,2.81c-0.79,0.74-1.81,1.11-3.07,1.11
		c-0.99,0-1.85-0.24-2.58-0.72c-0.73-0.48-1.36-1.24-1.88-2.28l2.22-1.34c0.67,1.22,1.43,1.84,2.3,1.84c0.45,0,0.83-0.13,1.14-0.4
		c0.31-0.26,0.46-0.57,0.46-0.91c0-0.31-0.12-0.63-0.35-0.94c-0.23-0.31-0.75-0.79-1.54-1.44c-1.51-1.23-2.48-2.18-2.92-2.85
		c-0.44-0.67-0.66-1.33-0.66-2c0-0.96,0.37-1.78,1.1-2.47c0.73-0.69,1.63-1.03,2.71-1.03c0.69,0,1.35,0.16,1.97,0.48
		C113.37,4.24,114.05,4.82,114.78,5.67z"/>
	<path class="st2" d="M117.99,3.78h7.56v2.58h-4.94v2.5h4.94v2.53h-4.94v3.64h4.94v2.59h-7.56V3.78z"/>
	<path class="st2" d="M132.67,3.78h2.67l5.32,13.85h-2.74l-1.08-2.85h-5.65l-1.13,2.85h-2.74L132.67,3.78z M134.03,7.45l-1.86,4.75
		h3.7L134.03,7.45z"/>
	<path class="st2" d="M143.33,3.78h2.79c1.53,0,2.62,0.14,3.27,0.41s1.17,0.73,1.57,1.36c0.4,0.63,0.59,1.38,0.59,2.25
		c0,0.91-0.22,1.67-0.65,2.28c-0.44,0.61-1.09,1.07-1.97,1.39l3.28,6.16h-2.88l-3.11-5.86h-0.24v5.86h-2.64V3.78z M145.97,9.2h0.83
		c0.84,0,1.42-0.11,1.73-0.33c0.32-0.22,0.47-0.59,0.47-1.1c0-0.3-0.08-0.56-0.23-0.79c-0.16-0.22-0.37-0.38-0.63-0.48
		c-0.26-0.1-0.74-0.15-1.44-0.15h-0.72V9.2z"/>
	<path class="st2" d="M167.5,6.22l-1.84,1.76c-1.25-1.33-2.66-1.99-4.23-1.99c-1.32,0-2.44,0.45-3.34,1.36
		c-0.91,0.9-1.36,2.02-1.36,3.34c0,0.92,0.2,1.74,0.6,2.46c0.4,0.72,0.97,1.28,1.7,1.69c0.73,0.41,1.55,0.61,2.45,0.61
		c0.76,0,1.46-0.14,2.1-0.43c0.63-0.29,1.33-0.81,2.09-1.56l1.79,1.86c-1.02,1-1.99,1.69-2.9,2.08c-0.91,0.39-1.95,0.58-3.11,0.58
		c-2.15,0-3.91-0.68-5.29-2.05c-1.37-1.36-2.06-3.11-2.06-5.25c0-1.38,0.31-2.61,0.94-3.68c0.62-1.07,1.52-1.94,2.68-2.59
		c1.16-0.65,2.42-0.98,3.76-0.98c1.14,0,2.24,0.24,3.3,0.72C165.83,4.64,166.74,5.33,167.5,6.22z"/>
	<path class="st2" d="M170.24,3.78h2.67v5.22h4.62V3.78h2.66v13.85h-2.66v-6.07h-4.62v6.07h-2.67V3.78z"/>
	<path class="st2" d="M63.34,29.78l-1.86,1.83c-1.17-1.24-2.54-1.86-4.11-1.86c-1.36,0-2.5,0.45-3.42,1.36
		c-0.92,0.9-1.38,2-1.38,3.29c0,1.34,0.48,2.47,1.43,3.4c0.95,0.93,2.13,1.39,3.53,1.39c0.91,0,1.68-0.19,2.3-0.57
		c0.63-0.38,1.13-0.98,1.51-1.8h-4.01v-2.48h6.97l0.02,0.58c0,1.21-0.31,2.36-0.94,3.45c-0.63,1.09-1.44,1.91-2.44,2.48
		c-1,0.57-2.17,0.86-3.51,0.86c-1.44,0-2.72-0.31-3.84-0.94c-1.13-0.62-2.02-1.51-2.67-2.67c-0.66-1.15-0.98-2.4-0.98-3.74
		c0-1.83,0.61-3.43,1.82-4.78c1.44-1.61,3.31-2.42,5.61-2.42c1.2,0,2.33,0.22,3.38,0.67C61.62,28.22,62.49,28.87,63.34,29.78z"/>
	<path class="st2" d="M66.75,27.52h7.56v2.58h-4.94v2.5h4.94v2.53h-4.94v3.64h4.94v2.59h-7.56V27.52z"/>
	<path class="st2" d="M83.31,27.18c1.96,0,3.64,0.71,5.05,2.13c1.41,1.42,2.11,3.15,2.11,5.19c0,2.02-0.7,3.73-2.09,5.13
		c-1.39,1.4-3.08,2.1-5.06,2.1c-2.08,0-3.81-0.72-5.18-2.16c-1.37-1.44-2.06-3.14-2.06-5.12c0-1.32,0.32-2.54,0.96-3.65
		c0.64-1.11,1.52-1.99,2.64-2.64C80.8,27.5,82.01,27.18,83.31,27.18z M83.28,29.75c-1.28,0-2.36,0.45-3.23,1.34
		c-0.87,0.89-1.31,2.02-1.31,3.4c0,1.53,0.55,2.74,1.65,3.63c0.85,0.7,1.83,1.04,2.94,1.04c1.25,0,2.32-0.45,3.19-1.36
		c0.88-0.9,1.32-2.02,1.32-3.34c0-1.32-0.44-2.43-1.33-3.35C85.62,30.21,84.55,29.75,83.28,29.75z"/>
	<path class="st2" d="M92.95,27.52h2.8c1.51,0,2.6,0.14,3.27,0.42s1.2,0.73,1.58,1.35c0.39,0.63,0.58,1.37,0.58,2.24
		c0,0.97-0.25,1.77-0.76,2.41c-0.5,0.64-1.19,1.09-2.06,1.34c-0.51,0.14-1.43,0.22-2.78,0.22v5.86h-2.64V27.52z M95.58,32.94h0.84
		c0.66,0,1.12-0.05,1.37-0.14c0.26-0.09,0.46-0.25,0.61-0.47c0.15-0.22,0.22-0.48,0.22-0.79c0-0.53-0.21-0.93-0.62-1.17
		c-0.3-0.18-0.86-0.27-1.68-0.27h-0.74V32.94z"/>
	<path class="st2" d="M103.74,27.52h2.67v5.22h4.62v-5.22h2.66v13.85h-2.66V35.3h-4.62v6.07h-2.67V27.52z"/>
	<path class="st2" d="M115.88,27.52h2.83l2.58,4.98l2.57-4.98h2.79l-4.05,7.85v6h-2.65v-6L115.88,27.52z"/>
	<path class="st2" d="M136.09,29.41l-1.95,1.72c-0.68-0.95-1.38-1.43-2.09-1.43c-0.35,0-0.63,0.09-0.85,0.28
		c-0.22,0.19-0.33,0.39-0.33,0.63c0,0.23,0.08,0.45,0.24,0.66c0.21,0.28,0.86,0.87,1.93,1.78c1.01,0.84,1.62,1.37,1.83,1.59
		c0.53,0.54,0.91,1.06,1.14,1.55c0.22,0.49,0.33,1.03,0.33,1.61c0,1.14-0.39,2.07-1.18,2.81c-0.79,0.74-1.81,1.11-3.07,1.11
		c-0.99,0-1.85-0.24-2.58-0.73c-0.73-0.48-1.36-1.24-1.88-2.28l2.22-1.34c0.67,1.22,1.43,1.84,2.3,1.84c0.45,0,0.83-0.13,1.14-0.4
		c0.31-0.26,0.46-0.57,0.46-0.91c0-0.31-0.12-0.63-0.35-0.94c-0.23-0.31-0.75-0.79-1.54-1.44c-1.51-1.23-2.48-2.18-2.92-2.85
		c-0.44-0.67-0.66-1.33-0.66-2c0-0.96,0.37-1.78,1.1-2.47c0.73-0.69,1.63-1.03,2.71-1.03c0.69,0,1.35,0.16,1.97,0.48
		C134.68,27.98,135.36,28.56,136.09,29.41z"/>
	<path class="st2" d="M138.66,27.52h2.62v13.85h-2.62V27.52z"/>
	<path class="st2" d="M156.96,29.96l-1.84,1.76c-1.25-1.33-2.66-1.99-4.23-1.99c-1.32,0-2.44,0.45-3.34,1.36
		c-0.91,0.9-1.36,2.02-1.36,3.34c0,0.92,0.2,1.74,0.6,2.46c0.4,0.72,0.97,1.28,1.7,1.69c0.73,0.41,1.55,0.61,2.45,0.61
		c0.76,0,1.46-0.14,2.1-0.43c0.63-0.29,1.33-0.81,2.09-1.56l1.79,1.86c-1.02,1-1.99,1.69-2.9,2.08c-0.91,0.39-1.95,0.58-3.11,0.58
		c-2.15,0-3.91-0.68-5.29-2.05c-1.37-1.37-2.06-3.11-2.06-5.25c0-1.38,0.31-2.61,0.94-3.68s1.52-1.94,2.68-2.59
		c1.16-0.65,2.42-0.98,3.76-0.98c1.14,0,2.24,0.24,3.3,0.72C155.29,28.38,156.2,29.07,156.96,29.96z"/>
	<path class="st2" d="M163.49,27.52h2.67l5.32,13.85h-2.74l-1.08-2.85h-5.65l-1.13,2.85h-2.74L163.49,27.52z M164.84,31.19
		l-1.86,4.75h3.7L164.84,31.19z"/>
	<path class="st2" d="M173.53,27.52h2.64v11.33H180v2.51h-6.48V27.52z"/>
</g>
<rect x="49.61" y="21.58" class="st1" width="130.81" height="2.05"/>
</svg>
