<?xml version="1.0" encoding="utf-8"?>
<!-- Generator: Adobe Illustrator 27.1.1, SVG Export Plug-In . SVG Version: 6.00 Build 0)  -->
<svg version="1.1" id="Layer_1" xmlns="http://www.w3.org/2000/svg" xmlns:xlink="http://www.w3.org/1999/xlink" x="0px" y="0px"
	 viewBox="0 0 126.84 145.82" style="enable-background:new 0 0 126.84 145.82;" xml:space="preserve">
<style type="text/css">
	.st0{fill:#FFFFFF;}
</style>
<path class="st0" d="M48.02,113.07l2.12,4.07c-1.72,0.9-3.31,2.16-4.99,3.97l-3.37-3.13C43.84,115.78,45.82,114.21,48.02,113.07z
	 M102.91,95.83H68.79c-0.68,1.39-1.29,2.91-1.82,4.59h33.05l19.53,40.8H6.88l3.35-8.08c0.58,0.33,1.48,0.81,2.69,1.34l1.83-4.21
	c-1.67-0.73-2.71-1.39-2.72-1.4l-0.07,0.11l11.85-28.56h32.11c-0.51-1.59-1.12-3.12-1.86-4.59H20.74L0,145.82h126.84L102.91,95.83z
	 M45.68,76.01c-1.32-1.02-2.65-2.06-3.95-3.1c0.03-0.32,0.06-0.64,0.12-0.98c0.98-5.6,5.53-11.46,9.99-14.58
	c-4.43-3.25-7.33-8.48-7.33-14.39c0-9.84,8.01-17.85,17.85-17.85s17.85,8.01,17.85,17.85c0,5.91-2.9,11.14-7.33,14.39
	c4.46,3.12,9.01,8.97,9.99,14.58c0.04,0.24,0.06,0.46,0.09,0.69c-0.83,0.64-1.68,1.27-2.56,1.87c-0.5,0.34-1,0.68-1.5,1.02
	c0.02-0.84-0.04-1.78-0.23-2.84c-0.99-5.64-6.77-11.52-10.11-12.98c-1.93,0.72-4.02,1.13-6.2,1.13c-2.18,0-4.26-0.41-6.2-1.13
	c-3.34,1.47-9.12,7.35-10.11,12.98c-0.32,1.83-0.23,3.19,0.26,3.82h0c0.01,0.01,0.01,0.02,0.02,0.03L45.68,76.01z M62.36,56.55
	c7.49,0,13.59-6.1,13.59-13.59c0-7.49-6.1-13.59-13.59-13.59s-13.59,6.1-13.59,13.59C48.77,50.46,54.87,56.55,62.36,56.55z
	 M55.68,110.81l0.53,4.56c0.76-0.09,1.57-0.14,2.42-0.16c-0.58-0.63-0.94-1.47-0.94-2.4c0-0.71-0.02-1.42-0.05-2.11
	C56.99,110.73,56.3,110.74,55.68,110.81z M29.28,69.02c-6.03-7.33-9.35-16.77-9.35-26.58C19.92,19.04,38.96,0,62.36,0
	c23.4,0,42.44,19.04,42.44,42.44c0,14.02-7.93,27.76-21.22,36.75c-8.64,5.84-15.78,10.7-18.82,23.96c0,0,0,0,0,0
	c-0.22,0.94-0.41,1.91-0.59,2.94c-0.04,0.22-0.06,0.46-0.1,0.68c-0.13,0.83-0.26,1.67-0.36,2.57c-0.13,1.15-0.25,2.36-0.33,3.62
	c-0.01,0.22-0.09,0.41-0.16,0.6c-0.05,0.11-0.1,0.23-0.16,0.34c-0.38,0.62-1.03,1.05-1.8,1.05l-0.07,0
	c-1.16-0.04-2.06-0.97-2.06-2.13c0-13.2-4.65-22.71-15.07-30.86l-1.88-1.46C37.46,76.83,32.59,73.05,29.28,69.02z M24.18,42.44
	c0,8.82,2.98,17.3,8.38,23.87c0.52,0.63,1.1,1.26,1.71,1.89c0.14,0.15,0.28,0.29,0.43,0.44c0.62,0.62,1.26,1.23,1.94,1.85
	c0.04,0.04,0.09,0.08,0.13,0.12c0.68,0.61,1.38,1.21,2.1,1.81c0.14,0.11,0.27,0.23,0.41,0.34c1.78,1.47,3.66,2.93,5.51,4.37
	l1.87,1.46c0.57,0.45,1.11,0.91,1.65,1.37c0.74,0.62,1.45,1.26,2.13,1.9c0.37,0.35,0.75,0.7,1.11,1.06l0.03,0.05
	c0.96,0.97,1.87,1.97,2.71,2.99c0.01,0.01,0.01,0.01,0.02,0.02c2.53,3.06,4.5,6.33,5.94,9.86c0.17,0.4,0.35,0.8,0.5,1.21l0.68,1.83
	l0.66-1.83c0.15-0.42,0.31-0.81,0.47-1.21c1.19-3,2.65-5.49,4.28-7.7l0.16-0.29c2.32-3.09,5.01-5.54,7.9-7.75c0.01,0,0.02,0,0.03,0
	c1.21-0.93,2.44-1.82,3.7-2.69c0,0,0,0,0,0c0.84-0.58,1.69-1.16,2.55-1.74c1.29-0.87,2.51-1.8,3.68-2.76
	c0.09-0.08,0.19-0.15,0.28-0.22c0.53-0.44,1.03-0.89,1.53-1.34c0.13-0.12,0.27-0.24,0.4-0.36c0.46-0.43,0.91-0.87,1.35-1.31
	c0.16-0.16,0.32-0.31,0.47-0.47c0.41-0.42,0.81-0.86,1.2-1.29c0.17-0.19,0.34-0.37,0.5-0.56c0.37-0.42,0.72-0.85,1.07-1.28
	c0.17-0.22,0.35-0.43,0.52-0.65c0.32-0.42,0.64-0.84,0.94-1.26c0.17-0.24,0.35-0.48,0.52-0.73c0.28-0.41,0.56-0.83,0.83-1.25
	c0.17-0.27,0.34-0.54,0.5-0.81c0.25-0.41,0.49-0.81,0.72-1.23c0.17-0.29,0.32-0.59,0.48-0.89c0.21-0.4,0.42-0.8,0.61-1.2
	c0.15-0.32,0.3-0.64,0.45-0.96c0.18-0.39,0.35-0.78,0.52-1.18c0.14-0.34,0.27-0.69,0.4-1.03c0.15-0.38,0.29-0.76,0.42-1.15
	c0.13-0.37,0.24-0.73,0.35-1.1c0.11-0.37,0.23-0.74,0.33-1.11c0.11-0.4,0.2-0.79,0.29-1.19c0.08-0.35,0.17-0.7,0.25-1.05
	c0.09-0.43,0.16-0.87,0.23-1.3c0.05-0.32,0.12-0.64,0.16-0.96c0.07-0.5,0.11-1,0.16-1.5c0.02-0.26,0.06-0.52,0.08-0.78
	c0.05-0.76,0.08-1.53,0.08-2.3c0-21.05-17.13-38.18-38.18-38.18C41.31,4.26,24.18,21.39,24.18,42.44z M97.88,135.47l-0.94-4.5
	c-1.22,0.26-2.52,0.35-4.04,0.27c-0.84-0.04-1.61-0.11-2.34-0.22l-0.63,4.55c0.85,0.12,1.76,0.21,2.74,0.26
	c0.42,0.02,0.83,0.03,1.23,0.03C95.3,135.86,96.64,135.73,97.88,135.47z M105.17,123.06c-0.73,2.17-1.77,3.93-3.09,5.23l3.23,3.26
	c1.84-1.81,3.25-4.18,4.21-7.04L105.17,123.06z M82.27,132.89l2.54-3.82c-1.87-1.24-2.93-2.94-3.81-4.6l-4.06,2.15
	C78.04,128.7,79.54,131.08,82.27,132.89z M32.7,128.79l2.97,3.5c1.11-0.95,2.17-2.05,3.14-3.28c0.67-0.85,1.31-1.68,1.92-2.48
	l-3.65-2.79c-0.6,0.79-1.23,1.6-1.88,2.43C34.43,127.16,33.59,128.04,32.7,128.79z M71.01,112.61l-1.86,4.2
	c1.89,0.84,3.33,2.02,4.53,3.72l3.75-2.65C75.76,115.51,73.66,113.79,71.01,112.61z M21.04,132.05l-0.59,4.56
	c0.97,0.13,1.94,0.19,2.88,0.19c1.79,0,3.53-0.23,5.17-0.67l-1.21-4.43C25.37,132.21,23.28,132.34,21.04,132.05z"/>
</svg>
