<?xml version="1.0" encoding="utf-8"?>
<!-- Generator: Adobe Illustrator 27.1.1, SVG Export Plug-In . SVG Version: 6.00 Build 0)  -->
<svg version="1.1" id="Layer_1" xmlns="http://www.w3.org/2000/svg" xmlns:xlink="http://www.w3.org/1999/xlink" x="0px" y="0px"
	 viewBox="0 0 154.81 145.37" style="enable-background:new 0 0 154.81 145.37;" xml:space="preserve">
<style type="text/css">
	.st0{fill:#FFFFFF;}
</style>
<path id="research" class="st0" d="M49.15,109.33h70.67v4.57H49.15V109.33z M119.82,63.72H54.53l-1.21,1.19l-3.41,3.38h69.9V63.72z
	 M119.82,75.12H49.15v4.57h70.67V75.12z M35.66,75.98l-4.57,4.52l-23.6,23.37L0,96.63l31.09-30.78l11.53-11.42l1.69,1.64l6.86-7.11
	c-6.77-8.47-6.36-20.85,1.38-28.86c4.3-4.45,10.03-6.69,15.76-6.69c5.48,0,10.96,2.04,15.22,6.15c0.47,0.46,0.91,0.94,1.33,1.43
	c0.4,0.47,0.79,0.96,1.15,1.46c0.03,0.04,0.06,0.08,0.09,0.12c0.35,0.49,0.67,0.98,0.97,1.49c0.04,0.06,0.08,0.13,0.12,0.19
	c0.29,0.49,0.55,1,0.8,1.51c0.04,0.07,0.07,0.15,0.11,0.22c0.25,0.52,0.47,1.05,0.67,1.59c0.02,0.05,0.04,0.1,0.06,0.15
	c0.21,0.56,0.4,1.13,0.56,1.71c0.42,1.5,0.67,3.03,0.76,4.57c0.03,0.57,0.05,1.15,0.04,1.72c0,0.02,0,0.03,0,0.05
	c-0.03,1.73-0.26,3.45-0.7,5.13c-0.41,1.57-1.01,3.11-1.78,4.58c-0.43,0.82-0.92,1.6-1.46,2.37c-0.11,0.15-0.21,0.3-0.32,0.45
	c-0.57,0.77-1.18,1.53-1.86,2.24c-4.3,4.45-10.02,6.68-15.75,6.68c-4.55,0-9.11-1.41-12.96-4.24l-6.87,7.12l1.62,1.56L35.66,75.98
	L35.66,75.98z M56.6,47.45c6.7,6.47,17.36,6.28,23.83-0.41c6.47-6.7,6.28-17.36-0.41-23.83s-17.36-6.28-23.83,0.42
	C49.72,30.32,49.91,40.98,56.6,47.45z M119.82,97.92H49.15v4.57h70.67V97.92z M119.82,86.52H49.15v4.57h70.67V86.52z M119.82,18
	h-31.5c1.24,1.43,2.32,2.96,3.2,4.57h28.31V18z M119.82,52.32H88.58c-0.4,0.47-0.79,0.95-1.22,1.4c-0.43,0.45-0.89,0.85-1.34,1.26
	v1.91h33.81V52.32z M154.81,11.13v134.24H44.56v-15.99h-8.9h-4.57l0-4.57l0-37.88l4.57-4.52l0,42.4h97.65V4.57H35.66l0,50.33
	l-4.57,4.52l0-54.85V0h4.57h97.66h4.57v4.57v6.57c0.01,0,0.01,0,0.02,0H154.81z M150.24,15.7H137.9c-0.01,0-0.01,0-0.02,0v109.11
	v4.57h-4.57H49.13v11.42h101.11V15.7z M119.82,40.91H94.15c-0.33,1.55-0.8,3.08-1.42,4.57h27.08V40.91z M119.82,29.43H94.1
	c0.34,1.51,0.54,3.03,0.62,4.57h25.11V29.43z"/>
</svg>
